<svg width="17" height="20" viewBox="0 0 17 20" fill="none" xmlns="http://www.w3.org/2000/svg">
<path d="M2.24489 16.4308C1.43006 16.4308 0.84087 16.1905 0.390949 15.6738C0.354323 15.6318 0.326287 15.5848 0.299157 15.5391C0.288756 15.522 0.278356 15.5045 0.267956 15.4879L0.162598 15.3223L0.346183 15.3846C0.7744 15.5294 1.19041 15.6872 1.56391 15.9949C1.5621 15.9856 1.56029 15.976 1.55893 15.9667C1.53316 15.8256 1.50829 15.6927 1.50739 15.5599C1.50241 14.9449 1.50965 14.3203 1.51643 13.716L1.52457 12.9793C1.53271 12.2149 1.54085 11.4242 1.55893 10.6469C1.5734 10.0228 1.60958 9.39125 1.64485 8.78048C1.65028 8.68176 1.67605 8.58673 1.70092 8.49493C1.71177 8.45433 1.72262 8.41374 1.73167 8.37314L1.74388 8.31871L1.91978 8.32102L1.92701 8.38099C1.93198 8.4202 1.93832 8.45987 1.9451 8.49908C1.96047 8.58996 1.9763 8.6836 1.97132 8.7791C1.96319 8.94055 1.94826 9.10339 1.93379 9.26116C1.91299 9.48628 1.89174 9.71924 1.89038 9.94713C1.88496 10.7046 1.88722 11.475 1.88948 12.2195C1.89084 12.691 1.89265 13.1629 1.89219 13.6344C1.89219 14.1169 1.88722 14.6077 1.88315 15.0819C1.88089 15.3449 1.87818 15.6083 1.87682 15.8712C1.87682 15.9017 1.87772 15.9331 1.87953 15.9594C4.04865 15.9492 6.27655 15.8385 8.68758 15.6212L8.7961 15.6115L8.75676 15.7153C8.71878 15.8163 8.69617 15.9141 8.69074 16.0059L8.68713 16.0655L8.62925 16.071C7.88722 16.1388 7.13162 16.184 6.40044 16.2278C5.97359 16.2532 5.5318 16.2795 5.09816 16.3104C4.39592 16.3602 3.68057 16.3842 2.98919 16.4077C2.79565 16.4142 2.60212 16.4211 2.40858 16.428C2.35432 16.4299 2.30006 16.4313 2.2467 16.4313L2.24489 16.4308Z" fill="white"/>
<path d="M1.79735 8.38836C1.81815 8.38836 1.8385 8.38883 1.8593 8.38929C1.87513 8.51799 1.90949 8.64762 1.90316 8.77494C1.88326 9.16567 1.82493 9.55547 1.82177 9.9462C1.81272 11.1756 1.82448 12.405 1.82358 13.6339C1.82267 14.3794 1.81272 15.1248 1.80775 15.8708C1.80775 15.9372 1.81363 16.0036 1.81453 16.029C4.1184 16.0202 6.40463 15.8966 8.69222 15.6904C8.65333 15.7937 8.62801 15.8989 8.62168 16.0018C7.44781 16.1093 6.26807 16.1582 5.09195 16.2412C4.19753 16.3044 3.3004 16.3261 2.40418 16.3588C2.35037 16.3607 2.29746 16.3621 2.24456 16.3621C1.55724 16.3621 0.928709 16.1877 0.441257 15.6281C0.395135 15.5751 0.362578 15.5105 0.324142 15.4505C0.794411 15.6097 1.25699 15.7836 1.66305 16.1762C1.62733 15.9377 1.57578 15.7485 1.57442 15.5594C1.569 14.8831 1.57804 14.2073 1.58528 13.531C1.59613 12.5701 1.60291 11.6092 1.62552 10.6488C1.63999 10.0269 1.67571 9.40555 1.71144 8.78463C1.71912 8.65131 1.76705 8.52076 1.79645 8.38836M1.68973 8.24859L1.66531 8.35746C1.65672 8.39621 1.64632 8.43496 1.63502 8.47601C1.60924 8.5715 1.58302 8.67022 1.57669 8.77586C1.54187 9.3871 1.50524 10.0195 1.49077 10.6451C1.47223 11.4228 1.46409 12.2135 1.45595 12.9784C1.45414 13.162 1.45234 13.3456 1.45007 13.5292L1.44781 13.7151C1.44103 14.3194 1.4338 14.9449 1.43877 15.5603C1.43967 15.6517 1.45053 15.7416 1.46545 15.8334C1.12134 15.5875 0.748741 15.4482 0.366647 15.3191L-0.000976562 15.1945L0.210192 15.5257C0.220592 15.5419 0.23054 15.5585 0.240488 15.5755C0.267619 15.6212 0.29882 15.6733 0.339516 15.7199C0.796672 16.2449 1.41978 16.5 2.24411 16.5C2.29746 16.5 2.35308 16.4991 2.4087 16.4968C2.60223 16.4899 2.79577 16.4829 2.9893 16.4765C3.68159 16.4529 4.39739 16.4285 5.10099 16.3787C5.53418 16.3482 5.97551 16.3215 6.40237 16.2961C7.134 16.2523 7.8905 16.2071 8.63343 16.1393L8.74964 16.1286L8.75688 16.0101C8.76185 15.9252 8.78265 15.8343 8.81838 15.7398L8.8966 15.5326L8.68001 15.552C6.2952 15.767 4.08991 15.8772 1.9434 15.8892C1.9434 15.8832 1.9434 15.8772 1.9434 15.8708C1.94521 15.6078 1.94747 15.3444 1.94974 15.0815C1.95426 14.6068 1.95833 14.116 1.95878 13.633C1.95878 13.1611 1.95787 12.6818 1.95607 12.2181C1.9538 11.4736 1.95109 10.7032 1.95697 9.9462C1.95878 9.72154 1.98003 9.48997 2.00038 9.26623C2.01485 9.108 2.02977 8.94424 2.03836 8.7814C2.04379 8.67853 2.02706 8.58073 2.01123 8.48616C2.00445 8.44603 1.99812 8.4082 1.9936 8.3713L1.97868 8.25136L1.8602 8.24997L1.79825 8.24905L1.68883 8.24767L1.68973 8.24859Z" fill="white"/>
<path d="M11.4054 12.6066C11.5664 9.51765 11.5533 7.1456 11.3615 4.93363C10.9491 5.09786 10.4915 5.11354 10.0479 5.1283C9.98645 5.13061 9.9254 5.13245 9.86436 5.13476C8.75199 5.17951 7.62063 5.20765 6.52635 5.23486C5.90867 5.25009 5.27019 5.26623 4.64211 5.28469C4.25278 5.29622 3.85712 5.31421 3.47413 5.33128C3.09475 5.34835 2.7018 5.36588 2.31564 5.37741C2.3084 5.37741 2.30117 5.37741 2.29393 5.37741C2.18722 5.37741 2.08231 5.35434 1.98012 5.3322C1.93264 5.32205 1.88335 5.31098 1.83587 5.30314L1.76985 5.29207L1.79337 5.12692L1.96972 5.05449L0.792236 4.82799L0.876794 4.73619C1.08706 4.50784 1.77211 4.42711 2.29484 4.42711C2.88991 4.42711 3.41896 4.52122 3.71017 4.67899L3.91003 4.7874L2.68914 4.90503L2.70044 4.97699L5.19558 4.83491C5.1879 4.7814 5.1793 4.72789 5.17116 4.6753C5.14539 4.51107 5.11916 4.34085 5.10967 4.17293C5.05269 3.12946 5.24758 2.24005 5.70564 1.45352C5.95751 1.02128 6.27765 0.755104 6.68417 0.640238C6.76646 0.617173 6.84514 0.605179 6.91839 0.605179C7.11735 0.605179 7.28828 0.689598 7.44112 0.86305C7.91726 1.4037 8.09949 2.07952 8.2148 2.66953C8.33418 3.28076 8.4332 4.0064 8.27449 4.78048L9.93173 4.6836L9.7694 4.44603L10.2397 4.14064L10.3387 4.26104L10.3197 4.33854C10.345 4.35423 10.3699 4.36945 10.3948 4.38467C10.5006 4.44972 10.601 4.51107 10.7023 4.56735C10.7032 4.56735 10.7072 4.56781 10.7127 4.56781C10.7203 4.56781 10.7267 4.56643 10.7303 4.56551C10.8307 4.46586 10.9428 4.41789 11.0735 4.41789C11.1798 4.41789 11.2833 4.44972 11.3837 4.48016C11.4529 4.50138 11.518 4.52122 11.5817 4.53091C11.6672 4.54336 11.6998 4.68176 11.7079 4.7242C11.7251 4.81554 11.7454 4.90918 11.7653 4.9996C11.8155 5.22933 11.8671 5.46644 11.877 5.70494C11.9602 7.71532 11.9485 9.88116 11.8399 12.5212L11.8377 12.5747L11.7861 12.5858C11.6912 12.6066 11.5935 12.6361 11.4967 12.6744L11.3991 12.7131L11.4045 12.6061L11.4054 12.6066ZM7.92721 4.80677C7.91907 4.65731 7.91229 4.51107 7.90506 4.36761C7.88742 4.0004 7.87114 3.65396 7.83768 3.30706C7.75629 2.46194 7.55145 1.82718 7.19332 1.31006C7.0857 1.15506 6.99707 1.08863 6.89579 1.08863C6.82163 1.08863 6.73255 1.12277 6.61589 1.19658C6.29891 1.39632 6.05789 1.70355 5.87883 2.1358C5.5926 2.82776 5.55009 3.58477 5.51256 4.2532C5.50442 4.39851 5.49312 4.54475 5.48181 4.68637C5.47865 4.72696 5.47548 4.7671 5.47232 4.80723H7.92676L7.92721 4.80677Z" fill="white"/>
<path d="M6.9189 0.674376C7.10023 0.674376 7.25261 0.751876 7.39143 0.909182C7.83729 1.41524 8.02313 2.03892 8.14884 2.68291C8.2863 3.38548 8.36453 4.09497 8.18908 4.85475C8.83118 4.81692 9.45022 4.78094 10.0575 4.74542C9.99103 4.64808 9.92863 4.55674 9.86623 4.46587L10.2266 4.23198L10.265 4.27857C10.2537 4.32471 10.2429 4.37037 10.2424 4.37176C10.3957 4.46494 10.5309 4.55075 10.6702 4.62825C10.6811 4.63424 10.6969 4.63701 10.7136 4.63701C10.7376 4.63701 10.7629 4.63101 10.7747 4.61902C10.8732 4.51984 10.9732 4.48709 11.074 4.48709C11.24 4.48709 11.4077 4.5752 11.5723 4.59964C11.6022 4.60426 11.632 4.68683 11.6415 4.73758C11.7025 5.06049 11.7957 5.38248 11.8092 5.70817C11.9033 7.97919 11.8658 10.2493 11.7722 12.5185C11.6704 12.5406 11.5705 12.5715 11.4724 12.6103C11.6071 10.0255 11.6514 7.42931 11.4199 4.83307C10.9433 5.05173 10.3939 5.04435 9.8608 5.06557C8.12126 5.13568 6.3799 5.16382 4.63946 5.21595C3.86351 5.23902 3.08847 5.28515 2.31298 5.30867C2.3062 5.30867 2.29987 5.30867 2.29308 5.30867C2.14477 5.30867 1.9951 5.26024 1.84633 5.23533C1.84904 5.21595 1.85175 5.19612 1.85447 5.17674C1.9345 5.14399 2.01409 5.11124 2.09412 5.07802C2.09548 5.05496 2.09639 5.03235 2.09774 5.00929C1.70796 4.93409 1.31818 4.85936 0.926139 4.78371C1.09661 4.59872 1.684 4.49631 2.29444 4.49631C2.82304 4.49631 3.36973 4.57335 3.67767 4.74034C3.32903 4.77402 2.97995 4.80769 2.60961 4.84322C2.62092 4.9138 2.63086 4.97561 2.64262 5.04942C3.52121 4.9996 4.39166 4.94978 5.27251 4.8995C5.2386 4.64947 5.19021 4.41005 5.1771 4.16832C5.1251 3.21987 5.28291 2.31386 5.76403 1.48812C5.98063 1.11631 6.27183 0.827992 6.70231 0.706206C6.77873 0.684525 6.85062 0.673454 6.91845 0.673454M5.40003 4.87597H7.99917C7.96751 4.32055 7.9544 3.8085 7.90556 3.30014C7.83593 2.57635 7.66998 1.87793 7.249 1.26992C7.13143 1.10016 7.02471 1.01943 6.89584 1.01943C6.80495 1.01943 6.70367 1.05957 6.58022 1.13753C6.21305 1.36911 5.98063 1.71186 5.81648 2.10904C5.53342 2.79362 5.48594 3.52065 5.44524 4.24951C5.43349 4.46033 5.41495 4.67023 5.40003 4.87643M6.9189 0.535984C6.83932 0.535984 6.75476 0.548439 6.66659 0.57335C6.24244 0.69329 5.90918 0.969613 5.64782 1.418C5.18253 2.21699 4.98447 3.11931 5.04235 4.17663C5.05185 4.34823 5.07852 4.5203 5.1043 4.68591C5.10882 4.71359 5.11289 4.74173 5.11741 4.76987L4.12668 4.82615L3.74233 4.61764C3.30914 4.38283 2.5861 4.35746 2.29535 4.35746C1.73328 4.35746 1.05275 4.44418 0.828015 4.68868L0.658447 4.87274L0.901721 4.91933L1.73238 5.0794L1.72153 5.15644L1.71746 5.18551L1.71339 5.21503L1.6944 5.34973L1.82598 5.37141C1.87165 5.37879 1.91777 5.38894 1.96661 5.39955C2.07197 5.42262 2.18049 5.44614 2.29444 5.44614C2.30258 5.44614 2.31027 5.44614 2.31841 5.44614C2.70502 5.43461 3.09797 5.41708 3.47735 5.40001C3.85989 5.38295 4.25601 5.36495 4.64488 5.35342C5.27251 5.33451 5.91099 5.31882 6.52867 5.3036C7.62295 5.27638 8.75476 5.24824 9.86758 5.2035C9.92863 5.20119 9.98967 5.19888 10.0507 5.19704C10.4703 5.18274 10.9026 5.16798 11.3024 5.02912C11.4864 7.21249 11.4972 9.5587 11.3381 12.6024L11.3268 12.816L11.5226 12.7385C11.6162 12.7016 11.7098 12.6725 11.8016 12.6532L11.9047 12.631L11.9092 12.5235C12.0182 9.88162 12.0299 7.71393 11.9463 5.70171C11.9363 5.45722 11.8839 5.21641 11.8328 4.98391C11.8133 4.89396 11.793 4.80124 11.7758 4.71082C11.7627 4.64255 11.7193 4.48109 11.5927 4.46217C11.5339 4.45341 11.471 4.43404 11.4041 4.41374C11.2992 4.38145 11.1911 4.34823 11.0745 4.34823C10.9365 4.34823 10.8167 4.39529 10.7095 4.4917C10.6182 4.44003 10.5269 4.38421 10.431 4.32517C10.4206 4.31871 10.4097 4.31225 10.3989 4.30533L10.4138 4.24305L10.3695 4.18908L10.3311 4.14249L10.2546 4.04977L10.1543 4.11481L9.79388 4.34869L9.6745 4.42619L9.75544 4.54475L9.80156 4.61256L9.80789 4.62133L8.3591 4.70621C8.49611 3.95335 8.39889 3.25078 8.28268 2.65569C8.16557 2.05645 7.98017 1.36957 7.49272 0.816459C7.32632 0.627323 7.13866 0.535522 6.91936 0.535522L6.9189 0.535984ZM5.54653 4.73758C5.54789 4.72235 5.54879 4.70667 5.55015 4.69144C5.561 4.54936 5.57276 4.40267 5.5809 4.25689C5.61798 3.59446 5.66003 2.84345 5.94174 2.16256C6.11764 1.73815 6.34328 1.44983 6.65212 1.25516C6.75612 1.18966 6.83615 1.15783 6.89629 1.15783C6.9501 1.15783 7.0211 1.18043 7.13821 1.34973C7.48956 1.85671 7.69033 2.48086 7.77036 3.31352C7.80337 3.65858 7.8201 4.00456 7.83774 4.37084C7.84362 4.49031 7.84949 4.61302 7.85582 4.73758H5.54653Z" fill="white"/>
<path d="M0.257305 15.469C0.243288 15.4408 0.226105 15.4127 0.208017 15.3827C0.161443 15.3061 0.113511 15.2268 0.10899 15.1368L0.105372 15.064C0.0818587 14.6036 0.0574409 14.1275 0.0768847 13.6593C0.14426 12.0207 0.225653 10.1146 0.336437 8.22599C0.38256 7.44269 0.461239 6.64924 0.537206 5.88208C0.560719 5.64589 0.584233 5.40924 0.606842 5.17305C0.617694 5.06142 0.648895 4.95347 0.679643 4.84921C0.693208 4.80262 0.706774 4.75557 0.718531 4.70898L0.731644 4.65639L0.92563 4.65777L0.934673 4.71543C0.944169 4.77494 0.957283 4.8363 0.969944 4.89581C0.999335 5.03281 1.02963 5.1749 1.02194 5.31698C1.00612 5.60945 0.97537 5.90469 0.945526 6.1907C0.926082 6.37753 0.905734 6.57081 0.889907 6.76087C0.872272 6.97538 0.853733 7.18943 0.835193 7.40394C0.77641 8.08806 0.715817 8.79524 0.679643 9.49135C0.619051 10.6677 0.568406 11.8648 0.519118 13.0222C0.492892 13.6408 0.466665 14.2599 0.439082 14.8785C0.433204 15.0118 0.418282 15.1456 0.40336 15.2748C0.397934 15.3251 0.392055 15.3753 0.387081 15.4252L0.405169 15.4625L0.381203 15.4828L0.361759 15.6784L0.257305 15.469Z" fill="white"/>
<path d="M0.784089 4.72512C0.811672 4.72512 0.839708 4.72512 0.867291 4.72558C0.898491 4.92118 0.964058 5.11908 0.953657 5.31237C0.927883 5.79397 0.861412 6.27327 0.82162 6.75395C0.746558 7.66458 0.658383 8.57474 0.611356 9.48674C0.518659 11.2817 0.451283 13.0785 0.370795 14.8744C0.362204 15.0626 0.335977 15.2499 0.316986 15.4372C0.266341 15.3361 0.181331 15.2365 0.176357 15.1327C0.151487 14.6428 0.123904 14.1506 0.144252 13.6616C0.218862 11.8505 0.297542 10.0389 0.403804 8.22922C0.463492 7.21065 0.57699 6.19485 0.673757 5.17859C0.688227 5.02497 0.746106 4.87597 0.783637 4.72466M0.31789 15.4376C0.31789 15.4376 0.320151 15.4418 0.321055 15.4441L0.316986 15.4478C0.316986 15.4445 0.317438 15.4408 0.31789 15.4376ZM0.678731 4.58581L0.652504 4.69099C0.6412 4.73619 0.628087 4.78094 0.614069 4.82846C0.582868 4.93594 0.550311 5.04711 0.539007 5.16567C0.516398 5.40186 0.492884 5.63805 0.469371 5.8747C0.393404 6.64278 0.314272 7.43715 0.268602 8.22137C0.15827 10.1109 0.076877 12.0175 0.0095019 13.656C-0.00994191 14.1275 0.0144759 14.605 0.0379894 15.0667L0.0416068 15.1405C0.047033 15.2485 0.102199 15.3394 0.150583 15.4192C0.167766 15.4478 0.184496 15.475 0.197157 15.5004L0.406518 15.9192L0.44631 15.5179L0.490171 15.4805L0.45671 15.4118C0.461232 15.3684 0.466206 15.3251 0.47118 15.2817C0.485649 15.1511 0.501024 15.016 0.506902 14.8804C0.534485 14.2613 0.561164 13.6321 0.586938 13.0236C0.635774 11.8666 0.686418 10.67 0.747463 9.49412C0.783185 8.79893 0.844229 8.09221 0.902561 7.40901C0.9211 7.1945 0.939188 6.98 0.957275 6.76549C0.973101 6.57635 0.992997 6.38352 1.01244 6.19669C1.04228 5.91022 1.07349 5.6136 1.08931 5.31929C1.09745 5.16752 1.06625 5.02128 1.03595 4.8792C1.02284 4.81784 1.01063 4.76018 1.00159 4.70252L0.983049 4.58719L0.868647 4.58627H0.827047L0.785446 4.58581L0.679183 4.58488L0.678731 4.58581Z" fill="white"/>
<path d="M4.03835 4.63793L4.02976 4.57611C4.02388 4.50969 4.01439 4.44095 4.00579 4.37452C3.98545 4.2246 3.96465 4.0696 3.97821 3.91644C4.0682 2.90341 4.38924 2.00109 4.93186 1.23486C5.10867 0.985295 5.37636 0.792929 5.58934 0.653153C5.67389 0.597796 5.75664 0.569656 5.83442 0.569656C5.97685 0.569656 6.10392 0.658689 6.22284 0.842289L6.27349 0.92025L6.18531 0.946545C6.15682 0.95531 6.12879 0.963152 6.1012 0.971455C6.04287 0.988524 5.98771 1.00467 5.93345 1.02266C5.42655 1.1915 5.16157 1.6219 4.95131 2.06153C4.59047 2.81576 4.41909 3.65119 4.28705 4.37498C4.27801 4.42434 4.2667 4.4737 4.25585 4.52122C4.25088 4.54336 4.2459 4.56504 4.24093 4.58719L4.22872 4.64254L4.03745 4.63839L4.03835 4.63793Z" fill="white"/>
<path d="M5.83498 0.638392C5.95797 0.638392 6.06559 0.723734 6.16688 0.880118C6.07825 0.906873 5.99505 0.929478 5.91321 0.956695C5.38777 1.13153 5.11511 1.56239 4.89128 2.03108C4.53857 2.76825 4.3672 3.56216 4.22159 4.36207C4.20893 4.43219 4.1913 4.50185 4.17592 4.5715C4.15015 4.57104 4.12392 4.57058 4.09815 4.56966C4.07916 4.35377 4.02761 4.13464 4.04615 3.92244C4.13206 2.95831 4.43005 2.06153 4.98714 1.275C5.14857 1.04757 5.39048 0.865356 5.62652 0.710818C5.70159 0.661919 5.77032 0.638392 5.83498 0.638392ZM5.83498 0.5C5.74364 0.5 5.64868 0.53183 5.55327 0.594568C5.33487 0.737574 5.06084 0.935013 4.87726 1.19427C4.32741 1.97065 4.00229 2.8845 3.91095 3.91045C3.89648 4.07145 3.91818 4.2306 3.93898 4.38421C3.94848 4.45295 3.95707 4.51799 3.96295 4.58257L3.9738 4.70574L4.09498 4.70851L4.17276 4.71036L4.284 4.71266L4.30841 4.60195C4.31294 4.58027 4.31791 4.55859 4.32288 4.53737C4.33374 4.48893 4.34549 4.43865 4.35454 4.3879C4.48567 3.66826 4.65569 2.83837 5.01291 2.09197C5.2485 1.59976 5.49901 1.2404 5.95526 1.08863C6.00816 1.0711 6.06288 1.05495 6.12031 1.03835C6.14834 1.03004 6.17638 1.0222 6.20532 1.01344L6.38167 0.960385L6.27993 0.804002C6.14744 0.599643 6.00183 0.500461 5.83498 0.500461V0.5Z" fill="white"/>
<path d="M1.59666 7.35319C1.50803 6.70367 1.52431 6.05968 1.64911 5.26439L1.67398 5.10477L1.76984 5.23348C2.02759 5.579 1.99548 6.96477 1.71965 7.38225L1.62062 7.53218L1.59621 7.35319H1.59666Z" fill="white"/>
<path d="M1.71604 5.27546C1.95796 5.59976 1.92586 6.94678 1.66359 7.34397C1.56637 6.62986 1.60707 5.97019 1.71604 5.27546ZM1.63194 4.93456L1.58175 5.25378C1.45604 6.05599 1.43976 6.70644 1.52884 7.36288L1.57768 7.72132L1.77573 7.42147C1.97831 7.1147 2.00951 6.47486 2.01403 6.28619C2.01855 6.09567 2.019 5.45399 1.82366 5.19196L1.63194 4.93502V4.93456Z" fill="white"/>
<path d="M8.80268 4.68037C8.57568 4.68037 8.38215 4.64162 8.24197 4.56873L8.12305 4.50646L8.24242 4.4451C8.56483 4.27949 8.90035 4.20522 9.32902 4.20522C9.50898 4.20522 9.69167 4.2186 9.84676 4.23152L10.0091 4.2449L9.88565 4.35284C9.66137 4.54844 9.22637 4.67991 8.80313 4.67991L8.80268 4.68037Z" fill="white"/>
<path d="M9.32903 4.27488C9.49724 4.27488 9.66771 4.28641 9.8409 4.30072C9.61843 4.49493 9.18569 4.61118 8.80224 4.61118C8.59876 4.61118 8.40929 4.57842 8.27273 4.50692C8.62543 4.32563 8.97271 4.27442 9.32903 4.27442M9.32903 4.13649C8.89493 4.13649 8.53997 4.21491 8.21169 4.38375L7.97339 4.50646L8.21124 4.63055C8.40025 4.72927 8.63719 4.75003 8.80269 4.75003C9.1676 4.75003 9.65731 4.64347 9.92953 4.40589L10.1769 4.19L9.8522 4.16278C9.6962 4.14987 9.51171 4.13649 9.32903 4.13649Z" fill="white"/>
<path d="M4.48478 4.84275C4.35953 4.84275 4.24196 4.81554 4.14474 4.76433L4.06787 4.72374L4.12439 4.65731C4.22794 4.53598 4.40158 4.46587 4.60009 4.46587C4.73574 4.46587 4.87049 4.49862 4.99032 4.55997L5.0898 4.61118L4.99937 4.67807C4.85783 4.78278 4.67018 4.84275 4.48388 4.84275H4.48478Z" fill="white"/>
<path d="M4.60046 4.53552C4.72074 4.53552 4.84645 4.56366 4.96039 4.62225C4.8261 4.72143 4.65156 4.77356 4.4847 4.77356C4.37392 4.77356 4.2663 4.75049 4.17586 4.70298C4.26946 4.59318 4.42908 4.53552 4.60046 4.53552ZM4.60046 4.39713C4.38205 4.39713 4.18988 4.47555 4.07321 4.6121L3.95972 4.74495L4.11301 4.82568C4.21972 4.88196 4.34814 4.91149 4.48425 4.91149C4.68411 4.91149 4.88669 4.8469 5.03953 4.73388L5.21995 4.60057L5.02099 4.49816C4.89212 4.43173 4.74651 4.39667 4.60046 4.39667V4.39713Z" fill="white"/>
<path d="M6.59473 1.28883L6.69737 1.33681C6.89995 1.43138 7.02656 1.80688 7.0971 2.10489C7.28928 2.91587 7.33857 4.38652 6.92391 4.92394L6.81358 5.06694L6.59473 1.28883Z" fill="white"/>
<path d="M6.66879 1.39955C7.16257 1.63021 7.40584 4.18723 6.87046 4.88104C6.80082 3.67611 6.7339 2.5256 6.66879 1.39955ZM6.52002 1.17812L6.53313 1.40785L6.6091 2.71843L6.73481 4.88934L6.75606 5.25332L6.97718 4.96684C7.40494 4.41281 7.35836 2.91356 7.16302 2.08874C7.05495 1.63297 6.90799 1.35896 6.72531 1.27408L6.52002 1.17812Z" fill="white"/>
<path d="M6.1104 4.80908C5.8834 4.80908 5.6745 4.75603 5.52301 4.65961L5.39233 4.57658L5.54065 4.53414C5.77352 4.46771 6.0489 4.39944 6.32609 4.39944C6.49204 4.39944 6.64895 4.42296 6.80631 4.47094L6.92975 4.50877L6.82937 4.59134C6.66296 4.72789 6.39437 4.80954 6.11085 4.80954L6.1104 4.80908Z" fill="white"/>
<path d="M6.32554 4.46863C6.47702 4.46863 6.62895 4.48893 6.78631 4.5369C6.62669 4.66792 6.36714 4.73988 6.1103 4.73988C5.90817 4.73988 5.70786 4.69559 5.55864 4.60056C5.82995 4.52307 6.07774 4.46863 6.32554 4.46863ZM6.32554 4.33024C6.04021 4.33024 5.75895 4.39943 5.52201 4.46725L5.22583 4.55213L5.48719 4.7182C5.64952 4.82153 5.87109 4.87827 6.11075 4.87827C6.40919 4.87827 6.69406 4.79108 6.87177 4.64485L7.07254 4.4797L6.82565 4.40451C6.66196 4.35469 6.49872 4.33024 6.32599 4.33024H6.32554Z" fill="white"/>
<path d="M7.46737 4.73296C7.36156 4.73296 7.25439 4.71681 7.14089 4.68313L7.03418 4.65177L7.11015 4.56919C7.21957 4.45017 7.38779 4.38236 7.57137 4.38236C7.70748 4.38236 7.84359 4.41881 7.96567 4.48708L8.08053 4.55166L7.96206 4.60979C7.79339 4.69236 7.63151 4.73296 7.46737 4.73296Z" fill="white"/>
<path d="M7.57138 4.4511C7.69166 4.4511 7.81782 4.48247 7.93268 4.54751C7.77441 4.62547 7.62293 4.66376 7.46738 4.66376C7.36745 4.66376 7.26571 4.64808 7.15944 4.61671C7.25983 4.50784 7.41041 4.45156 7.57138 4.45156M7.57138 4.31271C7.36926 4.31271 7.18296 4.38882 7.06087 4.52168L6.90894 4.68637L7.12191 4.7491C7.24174 4.78462 7.35479 4.80169 7.46738 4.80169C7.64237 4.80169 7.81375 4.75925 7.99146 4.67206L8.2284 4.55582L7.99824 4.42619C7.8662 4.35192 7.71879 4.31271 7.57138 4.31271Z" fill="white"/>
<path d="M12.862 13.0649C13.0043 13.0736 13.1481 13.0837 13.2913 13.096L12.862 13.0649ZM12.862 13.0649C12.8737 12.9564 12.888 12.8067 12.8866 12.6501L12.8866 12.6501L12.8866 12.6453C12.8809 12.2229 12.7882 11.7192 12.432 11.2844C12.076 10.8498 11.5736 10.6263 11.0422 10.5196L9.84523 10.2792V10.8674M12.862 13.0649L9.84523 10.8674M9.84523 10.8674C9.60385 11.0393 9.41363 11.2658 9.28544 11.5506C9.18555 11.7725 9.14487 11.9858 9.12213 12.1283C9.10525 12.2341 9.09906 12.284 9.09417 12.3233C9.08924 12.363 9.08563 12.3921 9.07375 12.4569L9.84523 10.8674ZM9.09671 13.1921C9.0648 13.0384 9.01717 12.7646 9.07365 12.4574L9.09671 13.1921ZM9.09671 13.1921C9.07858 13.196 9.05999 13.1999 9.04054 13.2037L9.04054 13.2037L9.03312 13.2052C8.97204 13.2177 8.89504 13.225 8.73422 13.2404L8.72421 13.2413L8.72168 13.2416C8.58661 13.2544 8.37026 13.275 8.15967 13.3291C7.9514 13.3826 7.62262 13.4986 7.35892 13.7919C7.06555 14.1183 6.97778 14.5202 7.00471 14.8903M9.09671 13.1921L12.6258 16.3338L11.6411 16.5085L12.6253 16.3314C12.6714 16.5871 12.7352 17.0996 12.5016 17.5906C12.3717 17.8637 12.1579 18.1115 11.8513 18.2801C11.5565 18.4422 11.2333 18.5 10.9205 18.5C10.5901 18.5 10.2405 18.4447 9.9247 18.2658C9.58522 18.0736 9.37455 17.7897 9.25951 17.4978C9.15555 17.2339 9.13566 16.9791 9.12939 16.8183C9.12609 16.7336 9.12619 16.6521 9.12627 16.5922V16.5921C9.12635 16.5251 9.12638 16.4838 9.12512 16.4469L9.12499 16.443L9.125 16.443C9.12416 16.4152 9.12371 16.3876 9.12352 16.3609C8.83058 16.3729 8.43134 16.3614 8.0581 16.2293C7.84254 16.1531 7.58766 16.02 7.37609 15.7827C7.15293 15.5324 7.02863 15.2224 7.00471 14.8903M7.00471 14.8903C7.00469 14.89 7.00467 14.8896 7.00465 14.8893L8.0021 14.8181L7.00478 14.8912C7.00476 14.8909 7.00474 14.8906 7.00471 14.8903ZM13.113 16.2398C13.4504 16.2632 13.8388 16.2102 14.1869 16.0272C14.5517 15.8354 14.938 15.4523 14.993 14.8562L14.9931 14.855C15.0403 14.3371 14.8433 13.8551 14.4454 13.5269C14.0935 13.2367 13.662 13.1281 13.2914 13.096L13.113 16.2398Z" fill="white" stroke="#2D2D2C" stroke-width="2"/>
</svg>
