<svg width="16" height="15" viewBox="0 0 16 15" fill="none" xmlns="http://www.w3.org/2000/svg">
<g clip-path="url(#clip0_557_33420)">
<g clip-path="url(#clip1_557_33420)">
<path d="M11.0511 5.27762C10.5433 3.78929 10.7494 2.15207 11.6111 0.833181M11.6111 0.833181L13.8333 3.33318L12.4444 5.83318L11.0556 5.27763V12.2221H3.27778V5.27763L1.88889 5.83318L0.5 3.33318L2.72222 0.833181M11.6111 0.833181L9.38889 -0.000152588M3.28222 5.27762C3.79 3.78929 3.58389 2.15207 2.72222 0.833181M2.72222 0.833181L4.94444 -0.000152588M9.38889 -0.000152588C7.93444 0.370403 6.39889 0.370403 4.94444 -0.000152588M9.38889 -0.000152588C9.10056 0.987625 8.19556 1.66651 7.16667 1.66651C6.13778 1.66651 5.23278 0.987625 4.94444 -0.000152588M11.0556 13.3332V14.9998M3.27778 13.3332V14.9998M9.66667 13.611L10.2222 14.1665M10.2222 14.1665L9.66667 14.7221M10.2222 14.1665H4.11111M4.66667 13.611L4.11111 14.1665M4.11111 14.1665L4.66667 14.7221M12.1667 -0.000152588H15.5M12.1667 12.2221H15.5M14.1111 1.38874L14.6667 0.833181M14.6667 0.833181L15.2222 1.38874M14.6667 0.833181V11.3887M14.1111 10.8332L14.6667 11.3887M14.6667 11.3887L15.2222 10.8332" stroke="#424242" stroke-width="0.5" stroke-linecap="round" stroke-linejoin="round"/>
</g>
</g>
<defs>
<clipPath id="clip0_557_33420">
<rect width="15" height="15" fill="white" transform="translate(0.5 -0.000152588)"/>
</clipPath>
<clipPath id="clip1_557_33420">
<rect width="15" height="15" fill="white" transform="translate(0.5 -0.000152588)"/>
</clipPath>
</defs>
</svg>
