<svg width="20" height="22" viewBox="0 0 20 22" fill="none" xmlns="http://www.w3.org/2000/svg">
<mask id="path-1-inside-1_4167_1979" fill="white">
<path d="M0.131592 21.9995C0.131592 17.482 3.07797 13.8209 6.71302 13.8209H12.6537C16.2893 13.8209 19.2351 17.482 19.2351 21.9995"/>
</mask>
<path d="M1.13159 21.9995C1.13159 17.8205 3.82215 14.8209 6.71302 14.8209V12.8209C2.33379 12.8209 -0.868408 17.1435 -0.868408 21.9995H1.13159ZM6.71302 14.8209H12.6537V12.8209H6.71302V14.8209ZM12.6537 14.8209C15.5451 14.8209 18.2351 17.8205 18.2351 21.9995H20.2351C20.2351 17.1436 17.0335 12.8209 12.6537 12.8209V14.8209Z" fill="black" mask="url(#path-1-inside-1_4167_1979)"/>
<path d="M14.7129 5.52967C14.7129 8.30748 12.461 10.5593 9.68324 10.5593C6.90542 10.5593 4.65356 8.30748 4.65356 5.52967C4.65356 2.75186 6.90542 0.5 9.68324 0.5C12.461 0.5 14.7129 2.75186 14.7129 5.52967Z" stroke="black"/>
</svg>
