<svg width="50" height="46" viewBox="0 0 50 46" fill="none" xmlns="http://www.w3.org/2000/svg">
<g clip-path="url(#clip0_541_15608)">
<path d="M33 14.4143C33 12.0409 31.4538 10.2211 29.3492 10.0392C29.1647 7.81594 27.2482 5.99985 25 5.99985C22.7518 5.99985 20.8353 7.81594 20.6508 10.0392C18.5462 10.2211 17 12.0409 17 14.4143C17 16.4921 18.2655 18.0578 20.2358 18.4521C21.2983 19.9782 23.0547 20.9995 25 20.9995C26.9453 20.9995 28.7017 19.9779 29.7642 18.4521C31.7345 18.0578 33 16.4921 33 14.4143ZM19.9235 15.5267C22.3896 15.719 24.4305 17.7723 24.6216 20.2534C22.1555 20.0612 20.1146 18.0079 19.9235 15.5267ZM23.5474 16.4349C23.549 15.0379 24.0586 13.7282 25 12.7321C25.9417 13.7279 26.451 15.0379 26.4522 16.4349C25.8131 17.0526 25.3126 17.8109 25 18.6544C24.6874 17.8109 24.1866 17.0522 23.5474 16.4346V16.4349ZM25.3781 20.2534C25.5695 17.7723 27.61 15.719 30.0761 15.5267C29.8847 18.0079 27.8442 20.0612 25.3781 20.2534ZM30.2863 17.5354C30.6238 16.8009 30.818 15.9923 30.818 15.146C30.818 14.944 30.6554 14.78 30.4543 14.78C29.2387 14.78 28.0984 15.1812 27.1526 15.8522C27.0255 14.4772 26.4572 13.2027 25.5065 12.2065C25.4231 12.1192 25.3344 12.0315 25.2457 11.9498C25.1065 11.8213 24.8929 11.8213 24.7536 11.9498C24.665 12.0315 24.5763 12.1192 24.4929 12.2068C23.5421 13.2033 22.9738 14.4778 22.8468 15.8525C21.9013 15.1815 20.7607 14.7803 19.5451 14.7803C19.3443 14.7803 19.1813 14.944 19.1813 15.1463C19.1813 15.9923 19.3756 16.8009 19.7131 17.5357C18.4847 17.0284 17.7266 15.8758 17.7266 14.4146C17.7266 12.329 19.1336 10.7561 20.9992 10.7561C21.2 10.7561 21.363 10.5924 21.363 10.3901C21.363 8.40686 23.0282 6.7315 24.9994 6.7315C26.9706 6.7315 28.6358 8.40686 28.6358 10.3901C28.6358 10.5921 28.7984 10.7561 28.9995 10.7561C30.8652 10.7561 32.2722 12.3287 32.2722 14.4146C32.2722 15.8758 31.514 17.0284 30.2857 17.5357L30.2863 17.5354Z" fill="#2D2D2C"/>
</g>
<path d="M18.2231 27.1595V26.6615H19.3511V30.9995H18.7991V27.1595H18.2231ZM20.289 28.7855C20.289 28.0975 20.401 27.5615 20.625 27.1775C20.849 26.7895 21.241 26.5955 21.801 26.5955C22.357 26.5955 22.747 26.7895 22.971 27.1775C23.195 27.5615 23.307 28.0975 23.307 28.7855C23.307 29.4855 23.195 30.0295 22.971 30.4175C22.747 30.8055 22.357 30.9995 21.801 30.9995C21.241 30.9995 20.849 30.8055 20.625 30.4175C20.401 30.0295 20.289 29.4855 20.289 28.7855ZM22.767 28.7855C22.767 28.4375 22.743 28.1435 22.695 27.9035C22.651 27.6595 22.557 27.4635 22.413 27.3155C22.273 27.1675 22.069 27.0935 21.801 27.0935C21.529 27.0935 21.321 27.1675 21.177 27.3155C21.037 27.4635 20.943 27.6595 20.895 27.9035C20.851 28.1435 20.829 28.4375 20.829 28.7855C20.829 29.1455 20.851 29.4475 20.895 29.6915C20.943 29.9355 21.037 30.1315 21.177 30.2795C21.321 30.4275 21.529 30.5015 21.801 30.5015C22.069 30.5015 22.273 30.4275 22.413 30.2795C22.557 30.1315 22.651 29.9355 22.695 29.6915C22.743 29.4475 22.767 29.1455 22.767 28.7855ZM24.0566 28.7855C24.0566 28.0975 24.1686 27.5615 24.3926 27.1775C24.6166 26.7895 25.0086 26.5955 25.5686 26.5955C26.1246 26.5955 26.5146 26.7895 26.7386 27.1775C26.9626 27.5615 27.0746 28.0975 27.0746 28.7855C27.0746 29.4855 26.9626 30.0295 26.7386 30.4175C26.5146 30.8055 26.1246 30.9995 25.5686 30.9995C25.0086 30.9995 24.6166 30.8055 24.3926 30.4175C24.1686 30.0295 24.0566 29.4855 24.0566 28.7855ZM26.5346 28.7855C26.5346 28.4375 26.5106 28.1435 26.4626 27.9035C26.4186 27.6595 26.3246 27.4635 26.1806 27.3155C26.0406 27.1675 25.8366 27.0935 25.5686 27.0935C25.2966 27.0935 25.0886 27.1675 24.9446 27.3155C24.8046 27.4635 24.7106 27.6595 24.6626 27.9035C24.6186 28.1435 24.5966 28.4375 24.5966 28.7855C24.5966 29.1455 24.6186 29.4475 24.6626 29.6915C24.7106 29.9355 24.8046 30.1315 24.9446 30.2795C25.0886 30.4275 25.2966 30.5015 25.5686 30.5015C25.8366 30.5015 26.0406 30.4275 26.1806 30.2795C26.3246 30.1315 26.4186 29.9355 26.4626 29.6915C26.5106 29.4475 26.5346 29.1455 26.5346 28.7855ZM27.7041 27.6395C27.7041 27.3675 27.7861 27.1515 27.9501 26.9915C28.1141 26.8275 28.3241 26.7455 28.5801 26.7455C28.8361 26.7455 29.0461 26.8275 29.2101 26.9915C29.3741 27.1515 29.4561 27.3675 29.4561 27.6395C29.4561 27.9155 29.3741 28.1355 29.2101 28.2995C29.0461 28.4595 28.8361 28.5395 28.5801 28.5395C28.3241 28.5395 28.1141 28.4595 27.9501 28.2995C27.7861 28.1355 27.7041 27.9155 27.7041 27.6395ZM31.2081 26.8115L28.7781 30.9995H28.2381L30.6681 26.8115H31.2081ZM28.5801 27.0815C28.4441 27.0815 28.3361 27.1295 28.2561 27.2255C28.1801 27.3175 28.1421 27.4555 28.1421 27.6395C28.1421 27.8235 28.1801 27.9635 28.2561 28.0595C28.3361 28.1555 28.4441 28.2035 28.5801 28.2035C28.7161 28.2035 28.8241 28.1555 28.9041 28.0595C28.9841 27.9595 29.0241 27.8195 29.0241 27.6395C29.0241 27.4555 28.9841 27.3175 28.9041 27.2255C28.8241 27.1295 28.7161 27.0815 28.5801 27.0815ZM30.0021 30.1715C30.0021 29.8955 30.0841 29.6775 30.2481 29.5175C30.4121 29.3535 30.6221 29.2715 30.8781 29.2715C31.1341 29.2715 31.3421 29.3535 31.5021 29.5175C31.6661 29.6775 31.7481 29.8955 31.7481 30.1715C31.7481 30.4435 31.6661 30.6615 31.5021 30.8255C31.3421 30.9895 31.1341 31.0715 30.8781 31.0715C30.6221 31.0715 30.4121 30.9915 30.2481 30.8315C30.0841 30.6675 30.0021 30.4475 30.0021 30.1715ZM30.8721 29.6135C30.7361 29.6135 30.6281 29.6615 30.5481 29.7575C30.4681 29.8495 30.4281 29.9875 30.4281 30.1715C30.4281 30.3515 30.4681 30.4895 30.5481 30.5855C30.6281 30.6775 30.7361 30.7235 30.8721 30.7235C31.0081 30.7235 31.1161 30.6775 31.1961 30.5855C31.2761 30.4895 31.3161 30.3515 31.3161 30.1715C31.3161 29.9875 31.2761 29.8495 31.1961 29.7575C31.1161 29.6615 31.0081 29.6135 30.8721 29.6135ZM13.4233 38.0695H11.5993L11.2633 38.9995H10.6873L12.1993 34.8415H12.8293L14.3353 38.9995H13.7593L13.4233 38.0695ZM13.2673 37.6255L12.5113 35.5135L11.7553 37.6255H13.2673ZM15.5402 38.5555H17.0042V38.9995H14.9942V34.8175H15.5402V38.5555ZM20.7521 36.0295C20.6361 35.7855 20.4681 35.5975 20.2481 35.4655C20.0281 35.3295 19.7721 35.2615 19.4801 35.2615C19.1881 35.2615 18.9241 35.3295 18.6881 35.4655C18.4561 35.5975 18.2721 35.7895 18.1361 36.0415C18.0041 36.2895 17.9381 36.5775 17.9381 36.9055C17.9381 37.2335 18.0041 37.5215 18.1361 37.7695C18.2721 38.0175 18.4561 38.2095 18.6881 38.3455C18.9241 38.4775 19.1881 38.5435 19.4801 38.5435C19.8881 38.5435 20.2241 38.4215 20.4881 38.1775C20.7521 37.9335 20.9061 37.6035 20.9501 37.1875H19.2821V36.7435H21.5321V37.1635C21.5001 37.5075 21.3921 37.8235 21.2081 38.1115C21.0241 38.3955 20.7821 38.6215 20.4821 38.7895C20.1821 38.9535 19.8481 39.0355 19.4801 39.0355C19.0921 39.0355 18.7381 38.9455 18.4181 38.7655C18.0981 38.5815 17.8441 38.3275 17.6561 38.0035C17.4721 37.6795 17.3801 37.3135 17.3801 36.9055C17.3801 36.4975 17.4721 36.1315 17.6561 35.8075C17.8441 35.4795 18.0981 35.2255 18.4181 35.0455C18.7381 34.8615 19.0921 34.7695 19.4801 34.7695C19.9241 34.7695 20.3161 34.8795 20.6561 35.0995C21.0001 35.3195 21.2501 35.6295 21.4061 36.0295H20.7521ZM24.15 39.0415C23.762 39.0415 23.408 38.9515 23.088 38.7715C22.768 38.5875 22.514 38.3335 22.326 38.0095C22.142 37.6815 22.05 37.3135 22.05 36.9055C22.05 36.4975 22.142 36.1315 22.326 35.8075C22.514 35.4795 22.768 35.2255 23.088 35.0455C23.408 34.8615 23.762 34.7695 24.15 34.7695C24.542 34.7695 24.898 34.8615 25.218 35.0455C25.538 35.2255 25.79 35.4775 25.974 35.8015C26.158 36.1255 26.25 36.4935 26.25 36.9055C26.25 37.3175 26.158 37.6855 25.974 38.0095C25.79 38.3335 25.538 38.5875 25.218 38.7715C24.898 38.9515 24.542 39.0415 24.15 39.0415ZM24.15 38.5675C24.442 38.5675 24.704 38.4995 24.936 38.3635C25.172 38.2275 25.356 38.0335 25.488 37.7815C25.624 37.5295 25.692 37.2375 25.692 36.9055C25.692 36.5695 25.624 36.2775 25.488 36.0295C25.356 35.7775 25.174 35.5835 24.942 35.4475C24.71 35.3115 24.446 35.2435 24.15 35.2435C23.854 35.2435 23.59 35.3115 23.358 35.4475C23.126 35.5835 22.942 35.7775 22.806 36.0295C22.674 36.2775 22.608 36.5695 22.608 36.9055C22.608 37.2375 22.674 37.5295 22.806 37.7815C22.942 38.0335 23.126 38.2275 23.358 38.3635C23.594 38.4995 23.858 38.5675 24.15 38.5675ZM28.2728 34.8175C28.7288 34.8175 29.1228 34.9035 29.4548 35.0755C29.7908 35.2435 30.0468 35.4855 30.2228 35.8015C30.4028 36.1175 30.4928 36.4895 30.4928 36.9175C30.4928 37.3455 30.4028 37.7175 30.2228 38.0335C30.0468 38.3455 29.7908 38.5855 29.4548 38.7535C29.1228 38.9175 28.7288 38.9995 28.2728 38.9995H26.9708V34.8175H28.2728ZM28.2728 38.5495C28.8128 38.5495 29.2248 38.4075 29.5088 38.1235C29.7928 37.8355 29.9348 37.4335 29.9348 36.9175C29.9348 36.3975 29.7908 35.9915 29.5028 35.6995C29.2188 35.4075 28.8088 35.2615 28.2728 35.2615H27.5168V38.5495H28.2728ZM33.685 38.0695H31.861L31.525 38.9995H30.949L32.461 34.8415H33.091L34.597 38.9995H34.021L33.685 38.0695ZM33.529 37.6255L32.773 35.5135L32.017 37.6255H33.529ZM31.891 34.4875C31.919 34.2835 31.985 34.1275 32.089 34.0195C32.197 33.9115 32.331 33.8575 32.491 33.8575C32.567 33.8575 32.631 33.8715 32.683 33.8995C32.739 33.9235 32.805 33.9595 32.881 34.0075C32.937 34.0475 32.987 34.0795 33.031 34.1035C33.075 34.1235 33.123 34.1335 33.175 34.1335C33.243 34.1335 33.301 34.1115 33.349 34.0675C33.397 34.0235 33.427 33.9595 33.439 33.8755H33.751C33.727 34.0755 33.661 34.2295 33.553 34.3375C33.445 34.4455 33.311 34.4995 33.151 34.4995C33.075 34.4995 33.007 34.4875 32.947 34.4635C32.891 34.4355 32.827 34.3955 32.755 34.3435C32.691 34.3035 32.639 34.2735 32.599 34.2535C32.563 34.2335 32.519 34.2235 32.467 34.2235C32.399 34.2235 32.341 34.2455 32.293 34.2895C32.249 34.3335 32.221 34.3995 32.209 34.4875H31.891ZM37.1519 39.0415C36.7639 39.0415 36.4099 38.9515 36.0899 38.7715C35.7699 38.5875 35.5159 38.3335 35.3279 38.0095C35.1439 37.6815 35.0519 37.3135 35.0519 36.9055C35.0519 36.4975 35.1439 36.1315 35.3279 35.8075C35.5159 35.4795 35.7699 35.2255 36.0899 35.0455C36.4099 34.8615 36.7639 34.7695 37.1519 34.7695C37.5439 34.7695 37.8999 34.8615 38.2199 35.0455C38.5399 35.2255 38.7919 35.4775 38.9759 35.8015C39.1599 36.1255 39.2519 36.4935 39.2519 36.9055C39.2519 37.3175 39.1599 37.6855 38.9759 38.0095C38.7919 38.3335 38.5399 38.5875 38.2199 38.7715C37.8999 38.9515 37.5439 39.0415 37.1519 39.0415ZM37.1519 38.5675C37.4439 38.5675 37.7059 38.4995 37.9379 38.3635C38.1739 38.2275 38.3579 38.0335 38.4899 37.7815C38.6259 37.5295 38.6939 37.2375 38.6939 36.9055C38.6939 36.5695 38.6259 36.2775 38.4899 36.0295C38.3579 35.7775 38.1759 35.5835 37.9439 35.4475C37.7119 35.3115 37.4479 35.2435 37.1519 35.2435C36.8559 35.2435 36.5919 35.3115 36.3599 35.4475C36.1279 35.5835 35.9439 35.7775 35.8079 36.0295C35.6759 36.2775 35.6099 36.5695 35.6099 36.9055C35.6099 37.2375 35.6759 37.5295 35.8079 37.7815C35.9439 38.0335 36.1279 38.2275 36.3599 38.3635C36.5959 38.4995 36.8599 38.5675 37.1519 38.5675Z" fill="#2D2D2C"/>
<defs>
<clipPath id="clip0_541_15608">
<rect width="16" height="14.9997" fill="white" transform="translate(17 5.99985)"/>
</clipPath>
</defs>
</svg>
