<svg width="50" height="46" viewBox="0 0 50 46" fill="none" xmlns="http://www.w3.org/2000/svg">
<g clip-path="url(#clip0_541_16182)">
<g clip-path="url(#clip1_541_16182)">
<path d="M30.2943 13.9996H32.4997C32.7762 13.9996 32.9999 13.7759 32.9999 13.4994C32.9999 13.2229 32.7762 12.9993 32.4997 12.9993H30.2943L28.8964 10.4838L28.1197 9.08632L30.2067 6.99934H32.4997C32.7762 6.99934 32.9999 6.77565 32.9999 6.49916C32.9999 6.22267 32.7762 5.99899 32.4997 5.99899H29.9997C29.8671 5.99899 29.74 6.0518 29.6464 6.1454L27.2928 8.49899H22.7071L20.3535 6.14625C20.2599 6.05266 20.1328 5.99985 20.0002 5.99985H17.5002C17.2237 5.99985 17 6.22353 17 6.50002C17 6.77651 17.2237 7.0002 17.5002 7.0002H19.7932L21.8802 9.08718L21.1036 10.4847L19.7057 13.0001H17.5002C17.2237 13.0001 17 13.2238 17 13.5003C17 13.7768 17.2237 14.0005 17.5002 14.0005H19.7057L21.1036 16.5159L21.8802 17.9134L19.7932 20.0004H17.5002C17.2237 20.0004 17 20.224 17 20.5005C17 20.777 17.2237 21.0007 17.5002 21.0007H20.0002C20.1328 21.0007 20.2599 20.9479 20.3535 20.8543L22.7071 18.5007H27.2928L29.6464 20.8543C29.74 20.9479 29.8671 21.0007 29.9997 21.0007H32.4997C32.7762 21.0007 32.9999 20.777 32.9999 20.5005C32.9999 20.224 32.7762 20.0004 32.4997 20.0004H30.2067L28.1197 17.9134L28.8964 16.5159L30.2943 14.0005V13.9996ZM27.2052 17.4995H22.7943L21.544 15.2494L20.572 13.4994L21.544 11.7495L22.7943 9.49934H27.2052L28.4554 11.7495L29.4274 13.4994L28.4554 15.2494L27.2052 17.4995Z" fill="#2D2D2C"/>
</g>
</g>
<path d="M13.8439 32.0418C13.8439 32.3898 13.7239 32.6798 13.4839 32.9118C13.2479 33.1398 12.8859 33.2538 12.3979 33.2538H11.5939V34.9998H11.0479V30.8178H12.3979C12.8699 30.8178 13.2279 30.9318 13.4719 31.1598C13.7199 31.3878 13.8439 31.6818 13.8439 32.0418ZM12.3979 32.8038C12.7019 32.8038 12.9259 32.7378 13.0699 32.6058C13.2139 32.4738 13.2859 32.2858 13.2859 32.0418C13.2859 31.5258 12.9899 31.2678 12.3979 31.2678H11.5939V32.8038H12.3979ZM16.4185 35.0418C16.0305 35.0418 15.6765 34.9518 15.3565 34.7718C15.0365 34.5878 14.7825 34.3338 14.5945 34.0098C14.4105 33.6818 14.3185 33.3138 14.3185 32.9058C14.3185 32.4978 14.4105 32.1318 14.5945 31.8078C14.7825 31.4798 15.0365 31.2258 15.3565 31.0458C15.6765 30.8618 16.0305 30.7698 16.4185 30.7698C16.8105 30.7698 17.1665 30.8618 17.4865 31.0458C17.8065 31.2258 18.0585 31.4778 18.2425 31.8018C18.4265 32.1258 18.5185 32.4938 18.5185 32.9058C18.5185 33.3178 18.4265 33.6858 18.2425 34.0098C18.0585 34.3338 17.8065 34.5878 17.4865 34.7718C17.1665 34.9518 16.8105 35.0418 16.4185 35.0418ZM16.4185 34.5678C16.7105 34.5678 16.9725 34.4998 17.2045 34.3638C17.4405 34.2278 17.6245 34.0338 17.7565 33.7818C17.8925 33.5298 17.9605 33.2378 17.9605 32.9058C17.9605 32.5698 17.8925 32.2778 17.7565 32.0298C17.6245 31.7778 17.4425 31.5838 17.2105 31.4478C16.9785 31.3118 16.7145 31.2438 16.4185 31.2438C16.1225 31.2438 15.8585 31.3118 15.6265 31.4478C15.3945 31.5838 15.2105 31.7778 15.0745 32.0298C14.9425 32.2778 14.8765 32.5698 14.8765 32.9058C14.8765 33.2378 14.9425 33.5298 15.0745 33.7818C15.2105 34.0338 15.3945 34.2278 15.6265 34.3638C15.8625 34.4998 16.1265 34.5678 16.4185 34.5678ZM19.7853 34.5558H21.2493V34.9998H19.2393V30.8178H19.7853V34.5558ZM22.3752 30.8178V34.9998H21.8292V30.8178H22.3752ZM23.8518 31.2618V32.6598H25.3758V33.1098H23.8518V34.5498H25.5558V34.9998H23.3058V30.8118H25.5558V31.2618H23.8518ZM24.9558 29.9118L23.6778 30.5958V30.1878L24.9558 29.4378V29.9118ZM27.7079 35.0418C27.4319 35.0418 27.1839 34.9938 26.9639 34.8978C26.7479 34.7978 26.5779 34.6618 26.4539 34.4898C26.3299 34.3138 26.2659 34.1118 26.2619 33.8838H26.8439C26.8639 34.0798 26.9439 34.2458 27.0839 34.3818C27.2279 34.5138 27.4359 34.5798 27.7079 34.5798C27.9679 34.5798 28.1719 34.5158 28.3199 34.3878C28.4719 34.2558 28.5479 34.0878 28.5479 33.8838C28.5479 33.7238 28.5039 33.5938 28.4159 33.4938C28.3279 33.3938 28.2179 33.3178 28.0859 33.2658C27.9539 33.2138 27.7759 33.1578 27.5519 33.0978C27.2759 33.0258 27.0539 32.9538 26.8859 32.8818C26.7219 32.8098 26.5799 32.6978 26.4599 32.5458C26.3439 32.3898 26.2859 32.1818 26.2859 31.9218C26.2859 31.6938 26.3439 31.4918 26.4599 31.3158C26.5759 31.1398 26.7379 31.0038 26.9459 30.9078C27.1579 30.8118 27.3999 30.7638 27.6719 30.7638C28.0639 30.7638 28.3839 30.8618 28.6319 31.0578C28.8839 31.2538 29.0259 31.5138 29.0579 31.8378H28.4579C28.4379 31.6778 28.3539 31.5378 28.2059 31.4178C28.0579 31.2938 27.8619 31.2318 27.6179 31.2318C27.3899 31.2318 27.2039 31.2918 27.0599 31.4118C26.9159 31.5278 26.8439 31.6918 26.8439 31.9038C26.8439 32.0558 26.8859 32.1798 26.9699 32.2758C27.0579 32.3718 27.1639 32.4458 27.2879 32.4978C27.4159 32.5458 27.5939 32.6018 27.8219 32.6658C28.0979 32.7418 28.3199 32.8178 28.4879 32.8938C28.6559 32.9658 28.7999 33.0798 28.9199 33.2358C29.0399 33.3878 29.0999 33.5958 29.0999 33.8598C29.0999 34.0638 29.0459 34.2558 28.9379 34.4358C28.8299 34.6158 28.6699 34.7618 28.4579 34.8738C28.2459 34.9858 27.9959 35.0418 27.7079 35.0418ZM32.4774 30.8178V31.2618H31.3374V34.9998H30.7914V31.2618H29.6454V30.8178H32.4774ZM33.6955 31.2618V32.6598H35.2195V33.1098H33.6955V34.5498H35.3995V34.9998H33.1495V30.8118H35.3995V31.2618H33.6955ZM38.4277 34.9998L37.4317 33.2898H36.7717V34.9998H36.2257V30.8178H37.5757C37.8917 30.8178 38.1577 30.8718 38.3737 30.9798C38.5937 31.0878 38.7577 31.2338 38.8657 31.4178C38.9737 31.6018 39.0277 31.8118 39.0277 32.0478C39.0277 32.3358 38.9437 32.5898 38.7757 32.8098C38.6117 33.0298 38.3637 33.1758 38.0317 33.2478L39.0817 34.9998H38.4277ZM36.7717 32.8518H37.5757C37.8717 32.8518 38.0937 32.7798 38.2417 32.6358C38.3897 32.4878 38.4637 32.2918 38.4637 32.0478C38.4637 31.7998 38.3897 31.6078 38.2417 31.4718C38.0977 31.3358 37.8757 31.2678 37.5757 31.2678H36.7717V32.8518Z" fill="#2D2D2C"/>
<defs>
<clipPath id="clip0_541_16182">
<rect width="16" height="15" fill="white" transform="translate(17 5.99985)"/>
</clipPath>
<clipPath id="clip1_541_16182">
<rect width="15.9999" height="15" fill="white" transform="translate(17 5.99985)"/>
</clipPath>
</defs>
</svg>
