<svg width="21" height="20" viewBox="0 0 21 20" fill="none" xmlns="http://www.w3.org/2000/svg">
<path d="M10.0844 2.8849L10.2324 3.10587L10.4983 3.10669L10.4986 3.10669L10.7665 3.10751L10.9156 2.88494C11.8925 1.42639 13.451 0.500001 15.1878 0.500001C18.0767 0.500001 20.5 3.0882 20.5 6.37465C20.5 8.80479 18.9766 11.4432 16.9842 13.7488C15.573 15.3819 13.9802 16.8115 12.7359 17.8354C12.1147 18.3465 11.5825 18.7546 11.2064 19.0344C11.0184 19.1743 10.8696 19.2821 10.7682 19.3545C10.7175 19.3907 10.6788 19.418 10.6529 19.4361L10.624 19.4564L10.617 19.4612L10.6155 19.4622L10.6154 19.4623C10.6153 19.4623 10.6153 19.4624 10.6152 19.4624C10.6152 19.4624 10.6152 19.4624 10.6152 19.4624C10.6152 19.4624 10.6152 19.4624 10.6152 19.4624C10.5423 19.5125 10.4577 19.5125 10.3848 19.4625C10.3848 19.4624 10.3847 19.4624 10.3846 19.4623L10.3845 19.4622L10.383 19.4612L10.376 19.4564L10.3471 19.4361C10.3212 19.418 10.2825 19.3907 10.2318 19.3545C10.1304 19.2821 9.98154 19.1743 9.79354 19.0344C9.41745 18.7546 8.88529 18.3464 8.26408 17.8353C7.01972 16.8115 5.42695 15.3818 4.0158 13.7489C2.02342 11.4428 0.5 8.80469 0.5 6.37465C0.5 3.08841 2.92309 0.5 5.8122 0.5C7.54918 0.5 9.10768 1.42641 10.0844 2.8849Z" fill="#0DA8CD" stroke="#0DA8CD"/>
</svg>
