<svg width="50" height="46" viewBox="0 0 50 46" fill="none" xmlns="http://www.w3.org/2000/svg">
<g clip-path="url(#clip0_541_15608)">
<path d="M33 14.4143C33 12.0409 31.4538 10.2211 29.3492 10.0392C29.1647 7.81594 27.2482 5.99985 25 5.99985C22.7518 5.99985 20.8353 7.81594 20.6508 10.0392C18.5462 10.2211 17 12.0409 17 14.4143C17 16.4921 18.2655 18.0578 20.2358 18.4521C21.2983 19.9782 23.0547 20.9995 25 20.9995C26.9453 20.9995 28.7017 19.9779 29.7642 18.4521C31.7345 18.0578 33 16.4921 33 14.4143ZM19.9235 15.5267C22.3896 15.719 24.4305 17.7723 24.6216 20.2534C22.1555 20.0612 20.1146 18.0079 19.9235 15.5267ZM23.5474 16.4349C23.549 15.0379 24.0586 13.7282 25 12.7321C25.9417 13.7279 26.451 15.0379 26.4522 16.4349C25.8131 17.0526 25.3126 17.8109 25 18.6544C24.6874 17.8109 24.1866 17.0522 23.5474 16.4346V16.4349ZM25.3781 20.2534C25.5695 17.7723 27.61 15.719 30.0761 15.5267C29.8847 18.0079 27.8442 20.0612 25.3781 20.2534ZM30.2863 17.5354C30.6238 16.8009 30.818 15.9923 30.818 15.146C30.818 14.944 30.6554 14.78 30.4543 14.78C29.2387 14.78 28.0984 15.1812 27.1526 15.8522C27.0255 14.4772 26.4572 13.2027 25.5065 12.2065C25.4231 12.1192 25.3344 12.0315 25.2457 11.9498C25.1065 11.8213 24.8929 11.8213 24.7536 11.9498C24.665 12.0315 24.5763 12.1192 24.4929 12.2068C23.5421 13.2033 22.9738 14.4778 22.8468 15.8525C21.9013 15.1815 20.7607 14.7803 19.5451 14.7803C19.3443 14.7803 19.1813 14.944 19.1813 15.1463C19.1813 15.9923 19.3756 16.8009 19.7131 17.5357C18.4847 17.0284 17.7266 15.8758 17.7266 14.4146C17.7266 12.329 19.1336 10.7561 20.9992 10.7561C21.2 10.7561 21.363 10.5924 21.363 10.3901C21.363 8.40686 23.0282 6.7315 24.9994 6.7315C26.9706 6.7315 28.6358 8.40686 28.6358 10.3901C28.6358 10.5921 28.7984 10.7561 28.9995 10.7561C30.8652 10.7561 32.2722 12.3287 32.2722 14.4146C32.2722 15.8758 31.514 17.0284 30.2857 17.5357L30.2863 17.5354Z" fill="#2D2D2C"/>
</g>
<path d="M13.4233 34.0695H11.5993L11.2633 34.9995H10.6873L12.1993 30.8415H12.8293L14.3353 34.9995H13.7593L13.4233 34.0695ZM13.2673 33.6255L12.5113 31.5135L11.7553 33.6255H13.2673ZM15.5402 34.5555H17.0042V34.9995H14.9942V30.8175H15.5402V34.5555ZM20.7521 32.0295C20.6361 31.7855 20.4681 31.5975 20.2481 31.4655C20.0281 31.3295 19.7721 31.2615 19.4801 31.2615C19.1881 31.2615 18.9241 31.3295 18.6881 31.4655C18.4561 31.5975 18.2721 31.7895 18.1361 32.0415C18.0041 32.2895 17.9381 32.5775 17.9381 32.9055C17.9381 33.2335 18.0041 33.5215 18.1361 33.7695C18.2721 34.0175 18.4561 34.2095 18.6881 34.3455C18.9241 34.4775 19.1881 34.5435 19.4801 34.5435C19.8881 34.5435 20.2241 34.4215 20.4881 34.1775C20.7521 33.9335 20.9061 33.6035 20.9501 33.1875H19.2821V32.7435H21.5321V33.1635C21.5001 33.5075 21.3921 33.8235 21.2081 34.1115C21.0241 34.3955 20.7821 34.6215 20.4821 34.7895C20.1821 34.9535 19.8481 35.0355 19.4801 35.0355C19.0921 35.0355 18.7381 34.9455 18.4181 34.7655C18.0981 34.5815 17.8441 34.3275 17.6561 34.0035C17.4721 33.6795 17.3801 33.3135 17.3801 32.9055C17.3801 32.4975 17.4721 32.1315 17.6561 31.8075C17.8441 31.4795 18.0981 31.2255 18.4181 31.0455C18.7381 30.8615 19.0921 30.7695 19.4801 30.7695C19.9241 30.7695 20.3161 30.8795 20.6561 31.0995C21.0001 31.3195 21.2501 31.6295 21.4061 32.0295H20.7521ZM24.15 35.0415C23.762 35.0415 23.408 34.9515 23.088 34.7715C22.768 34.5875 22.514 34.3335 22.326 34.0095C22.142 33.6815 22.05 33.3135 22.05 32.9055C22.05 32.4975 22.142 32.1315 22.326 31.8075C22.514 31.4795 22.768 31.2255 23.088 31.0455C23.408 30.8615 23.762 30.7695 24.15 30.7695C24.542 30.7695 24.898 30.8615 25.218 31.0455C25.538 31.2255 25.79 31.4775 25.974 31.8015C26.158 32.1255 26.25 32.4935 26.25 32.9055C26.25 33.3175 26.158 33.6855 25.974 34.0095C25.79 34.3335 25.538 34.5875 25.218 34.7715C24.898 34.9515 24.542 35.0415 24.15 35.0415ZM24.15 34.5675C24.442 34.5675 24.704 34.4995 24.936 34.3635C25.172 34.2275 25.356 34.0335 25.488 33.7815C25.624 33.5295 25.692 33.2375 25.692 32.9055C25.692 32.5695 25.624 32.2775 25.488 32.0295C25.356 31.7775 25.174 31.5835 24.942 31.4475C24.71 31.3115 24.446 31.2435 24.15 31.2435C23.854 31.2435 23.59 31.3115 23.358 31.4475C23.126 31.5835 22.942 31.7775 22.806 32.0295C22.674 32.2775 22.608 32.5695 22.608 32.9055C22.608 33.2375 22.674 33.5295 22.806 33.7815C22.942 34.0335 23.126 34.2275 23.358 34.3635C23.594 34.4995 23.858 34.5675 24.15 34.5675ZM28.2728 30.8175C28.7288 30.8175 29.1228 30.9035 29.4548 31.0755C29.7908 31.2435 30.0468 31.4855 30.2228 31.8015C30.4028 32.1175 30.4928 32.4895 30.4928 32.9175C30.4928 33.3455 30.4028 33.7175 30.2228 34.0335C30.0468 34.3455 29.7908 34.5855 29.4548 34.7535C29.1228 34.9175 28.7288 34.9995 28.2728 34.9995H26.9708V30.8175H28.2728ZM28.2728 34.5495C28.8128 34.5495 29.2248 34.4075 29.5088 34.1235C29.7928 33.8355 29.9348 33.4335 29.9348 32.9175C29.9348 32.3975 29.7908 31.9915 29.5028 31.6995C29.2188 31.4075 28.8088 31.2615 28.2728 31.2615H27.5168V34.5495H28.2728ZM33.685 34.0695H31.861L31.525 34.9995H30.949L32.461 30.8415H33.091L34.597 34.9995H34.021L33.685 34.0695ZM33.529 33.6255L32.773 31.5135L32.017 33.6255H33.529ZM31.891 30.4875C31.919 30.2835 31.985 30.1275 32.089 30.0195C32.197 29.9115 32.331 29.8575 32.491 29.8575C32.567 29.8575 32.631 29.8715 32.683 29.8995C32.739 29.9235 32.805 29.9595 32.881 30.0075C32.937 30.0475 32.987 30.0795 33.031 30.1035C33.075 30.1235 33.123 30.1335 33.175 30.1335C33.243 30.1335 33.301 30.1115 33.349 30.0675C33.397 30.0235 33.427 29.9595 33.439 29.8755H33.751C33.727 30.0755 33.661 30.2295 33.553 30.3375C33.445 30.4455 33.311 30.4995 33.151 30.4995C33.075 30.4995 33.007 30.4875 32.947 30.4635C32.891 30.4355 32.827 30.3955 32.755 30.3435C32.691 30.3035 32.639 30.2735 32.599 30.2535C32.563 30.2335 32.519 30.2235 32.467 30.2235C32.399 30.2235 32.341 30.2455 32.293 30.2895C32.249 30.3335 32.221 30.3995 32.209 30.4875H31.891ZM37.1519 35.0415C36.7639 35.0415 36.4099 34.9515 36.0899 34.7715C35.7699 34.5875 35.5159 34.3335 35.3279 34.0095C35.1439 33.6815 35.0519 33.3135 35.0519 32.9055C35.0519 32.4975 35.1439 32.1315 35.3279 31.8075C35.5159 31.4795 35.7699 31.2255 36.0899 31.0455C36.4099 30.8615 36.7639 30.7695 37.1519 30.7695C37.5439 30.7695 37.8999 30.8615 38.2199 31.0455C38.5399 31.2255 38.7919 31.4775 38.9759 31.8015C39.1599 32.1255 39.2519 32.4935 39.2519 32.9055C39.2519 33.3175 39.1599 33.6855 38.9759 34.0095C38.7919 34.3335 38.5399 34.5875 38.2199 34.7715C37.8999 34.9515 37.5439 35.0415 37.1519 35.0415ZM37.1519 34.5675C37.4439 34.5675 37.7059 34.4995 37.9379 34.3635C38.1739 34.2275 38.3579 34.0335 38.4899 33.7815C38.6259 33.5295 38.6939 33.2375 38.6939 32.9055C38.6939 32.5695 38.6259 32.2775 38.4899 32.0295C38.3579 31.7775 38.1759 31.5835 37.9439 31.4475C37.7119 31.3115 37.4479 31.2435 37.1519 31.2435C36.8559 31.2435 36.5919 31.3115 36.3599 31.4475C36.1279 31.5835 35.9439 31.7775 35.8079 32.0295C35.6759 32.2775 35.6099 32.5695 35.6099 32.9055C35.6099 33.2375 35.6759 33.5295 35.8079 33.7815C35.9439 34.0335 36.1279 34.2275 36.3599 34.3635C36.5959 34.4995 36.8599 34.5675 37.1519 34.5675Z" fill="#2D2D2C"/>
<defs>
<clipPath id="clip0_541_15608">
<rect width="16" height="14.9997" fill="white" transform="translate(17 5.99985)"/>
</clipPath>
</defs>
</svg>
