<svg width="50" height="46" viewBox="0 0 50 46" fill="none" xmlns="http://www.w3.org/2000/svg">
<g clip-path="url(#clip0_541_16230)">
<g clip-path="url(#clip1_541_16230)">
<path d="M19.3413 10.7367H17.3904C17.1749 10.7367 17 10.5601 17 10.3418C17 10.1235 17.1746 9.94695 17.3904 9.94695H19.3416C19.5571 9.94695 19.732 10.1235 19.732 10.3418C19.732 10.5601 19.5574 10.7367 19.3416 10.7367H19.3413ZM27.9267 10.7367C28.1425 10.7367 28.3171 10.5601 28.3171 10.3418C28.3171 10.1235 28.1425 9.94695 27.9267 9.94695H25.5854V6.39473C25.5854 6.17678 25.4108 5.99985 25.195 5.99985C24.9792 5.99985 24.8046 6.17644 24.8046 6.39473V9.94729H22.4633C22.2479 9.94729 22.073 10.1239 22.073 10.3422C22.073 10.5605 22.2475 10.737 22.4633 10.737H24.8046V20.6056C24.8046 20.8236 24.9792 21.0005 25.195 21.0005C25.4108 21.0005 25.5854 20.8239 25.5854 20.6056V10.7367H27.9267ZM32.6096 9.94729H31.0488C30.833 9.94729 30.6584 10.1239 30.6584 10.3422C30.6584 10.5605 30.833 10.737 31.0488 10.737H32.6096C32.8254 10.737 33 10.5605 33 10.3422C33 10.1239 32.8254 9.94729 32.6096 9.94729ZM23.6596 15.8684H21.2925V6.39473C21.2925 6.17678 21.118 5.99985 20.9022 5.99985C20.6864 5.99985 20.5118 6.17644 20.5118 6.39473V15.8684H18.1708C17.9553 15.8684 17.7804 16.045 17.7804 16.2633C17.7804 16.4816 17.955 16.6582 18.1708 16.6582H20.5121V20.6056C20.5121 20.8236 20.6867 21.0005 20.9025 21.0005C21.1183 21.0005 21.2929 20.8239 21.2929 20.6056V16.6582H23.66C23.8754 16.6582 24.0503 16.4816 24.0503 16.2633C24.0503 16.045 23.8758 15.8684 23.66 15.8684H23.6596ZM32.2196 15.8684H29.8783V6.39473C29.8783 6.17678 29.7037 5.99985 29.4879 5.99985C29.2721 5.99985 29.0975 6.17644 29.0975 6.39473V15.8684H26.7941C26.5783 15.8684 26.4037 16.045 26.4037 16.2633C26.4037 16.4816 26.5783 16.6582 26.7941 16.6582H29.0975V20.6056C29.0975 20.8236 29.2721 21.0005 29.4879 21.0005C29.7037 21.0005 29.8783 20.8239 29.8783 20.6056V16.6582H32.2196C32.4354 16.6582 32.61 16.4816 32.61 16.2633C32.61 16.045 32.4354 15.8684 32.2196 15.8684Z" fill="#2D2D2C"/>
</g>
</g>
<path d="M17.4299 34.5558H18.8939V34.9998H16.8839V30.8178H17.4299V34.5558ZM20.0197 30.8178V34.9998H19.4737V30.8178H20.0197ZM24.2383 34.9998H23.6923L21.4963 31.6698V34.9998H20.9503V30.8118H21.4963L23.6923 34.1358V30.8118H24.2383V34.9998ZM28.391 30.8178V34.9998H27.845V33.1038H25.715V34.9998H25.169V30.8178H25.715V32.6538H27.845V30.8178H28.391ZM31.2193 35.0418C30.8313 35.0418 30.4773 34.9518 30.1573 34.7718C29.8373 34.5878 29.5833 34.3338 29.3953 34.0098C29.2113 33.6818 29.1193 33.3138 29.1193 32.9058C29.1193 32.4978 29.2113 32.1318 29.3953 31.8078C29.5833 31.4798 29.8373 31.2258 30.1573 31.0458C30.4773 30.8618 30.8313 30.7698 31.2193 30.7698C31.6113 30.7698 31.9673 30.8618 32.2873 31.0458C32.6073 31.2258 32.8593 31.4778 33.0433 31.8018C33.2273 32.1258 33.3193 32.4938 33.3193 32.9058C33.3193 33.3178 33.2273 33.6858 33.0433 34.0098C32.8593 34.3338 32.6073 34.5878 32.2873 34.7718C31.9673 34.9518 31.6113 35.0418 31.2193 35.0418ZM31.2193 34.5678C31.5113 34.5678 31.7733 34.4998 32.0053 34.3638C32.2413 34.2278 32.4253 34.0338 32.5573 33.7818C32.6933 33.5298 32.7613 33.2378 32.7613 32.9058C32.7613 32.5698 32.6933 32.2778 32.5573 32.0298C32.4253 31.7778 32.2433 31.5838 32.0113 31.4478C31.7793 31.3118 31.5153 31.2438 31.2193 31.2438C30.9233 31.2438 30.6593 31.3118 30.4273 31.4478C30.1953 31.5838 30.0113 31.7778 29.8753 32.0298C29.7433 32.2778 29.6773 32.5698 29.6773 32.9058C29.6773 33.2378 29.7433 33.5298 29.8753 33.7818C30.0113 34.0338 30.1953 34.2278 30.4273 34.3638C30.6633 34.4998 30.9273 34.5678 31.2193 34.5678Z" fill="#2D2D2C"/>
<defs>
<clipPath id="clip0_541_16230">
<rect width="16" height="15" fill="white" transform="translate(17 5.99985)"/>
</clipPath>
<clipPath id="clip1_541_16230">
<rect width="16" height="15" fill="white" transform="translate(17 5.99985)"/>
</clipPath>
</defs>
</svg>
