<svg width="21" height="21" viewBox="0 0 21 21" fill="none" xmlns="http://www.w3.org/2000/svg">
<path d="M10.0844 3.3849L10.2324 3.60584L10.4983 3.60669L10.4986 3.60669L10.7665 3.60754L10.9156 3.38494C11.8925 1.92639 13.451 1 15.1878 1C18.0767 1 20.5 3.5882 20.5 6.87465C20.5 9.30479 18.9766 11.9432 16.9842 14.2488C15.573 15.8819 13.9802 17.3115 12.7359 18.3354C12.1147 18.8465 11.5825 19.2546 11.2064 19.5345C11.0184 19.6743 10.8696 19.7821 10.7682 19.8545C10.7175 19.8907 10.6788 19.918 10.6529 19.9361L10.624 19.9564L10.617 19.9612L10.6155 19.9622L10.6154 19.9623C10.5424 20.0126 10.4576 20.0126 10.3846 19.9623L10.3845 19.9622L10.383 19.9612L10.376 19.9564L10.3471 19.9361C10.3212 19.918 10.2825 19.8907 10.2318 19.8545C10.1304 19.7821 9.98154 19.6743 9.79354 19.5344C9.41745 19.2546 8.88529 18.8464 8.26408 18.3353C7.01972 17.3115 5.42695 15.8818 4.0158 14.2489C2.02342 11.9428 0.5 9.30469 0.5 6.87465C0.5 3.58841 2.92309 1 5.8122 1C7.54918 1 9.10768 1.92641 10.0844 3.3849Z" stroke="#0DA8CD"/>
</svg>
