<svg width="14" height="14" viewBox="0 0 14 14" fill="none" xmlns="http://www.w3.org/2000/svg">
<path d="M5.46161 0C2.44919 0 0 2.44973 0 5.46261C0 8.47546 2.44928 10.9252 5.46161 10.9252C6.84621 10.9252 8.10887 10.4062 9.07231 9.55417L13.4139 13.8965C13.4778 13.9624 13.5655 13.9996 13.6572 14C13.7489 14.0004 13.8369 13.9638 13.9014 13.8987C13.9659 13.8334 14.0014 13.7451 14 13.6534C13.9986 13.5616 13.9604 13.4743 13.8939 13.4112L9.55782 9.074C10.4071 8.11091 10.9232 6.84515 10.9232 5.46264C10.9232 2.44967 8.47397 3.36063e-05 5.46164 3.36063e-05L5.46161 0ZM5.46161 0.682887C8.10494 0.682887 10.2405 2.81873 10.2405 5.46267C10.2405 8.10649 8.10506 10.2425 5.46161 10.2425C2.81815 10.2425 0.682701 8.10661 0.682701 5.46267C0.682701 2.81873 2.81815 0.682887 5.46161 0.682887Z" fill="black"/>
</svg>
