<svg width="17" height="18" viewBox="0 0 17 18" fill="none" xmlns="http://www.w3.org/2000/svg">
<path d="M11.0911 3.7885C11.0748 3.43196 10.815 3.15646 10.4902 3.15646H9.2561V3.07543C9.2561 1.43863 7.90828 0.109741 6.25193 0.109741H6.08954C4.43318 0.109741 3.08537 1.43863 3.08537 3.07543V3.15646H1.85122C1.52644 3.15646 1.26662 3.43196 1.25039 3.7885L0 13.0097V13.0583C0 13.9496 0.746983 14.6951 1.67259 14.6951H10.6851C11.5945 14.6951 12.3415 13.9496 12.3415 13.0421V13.0259L11.0911 3.7885ZM3.75116 3.07543C3.75116 1.79516 4.80668 0.774186 6.08954 0.774186H6.25193C7.53479 0.774186 8.59031 1.81137 8.59031 3.07543V3.15646H3.75116V3.07543ZM10.6689 14.0307H1.67259C1.12047 14.0307 0.682028 13.5931 0.66579 13.0583L1.91617 3.85332V3.8047H3.08537V5.86286C3.08537 6.04112 3.23151 6.18698 3.42638 6.18698C3.60501 6.18698 3.76739 6.04112 3.76739 5.86286V3.82091H8.60655V5.87906C8.60655 6.05733 8.7527 6.20318 8.94756 6.20318C9.14243 6.20318 9.28858 6.05733 9.28858 5.87906V3.82091H10.4578L11.6757 13.0745C11.6594 13.6093 11.221 14.0307 10.6689 14.0307Z" fill="white"/>
<ellipse cx="11.5122" cy="12.4025" rx="4.4878" ry="4.4878" fill="#0DA8CD" stroke="#0DA8CD"/>
<path d="M14.573 12.8414H12.149V15.3254H10.877V12.8414H8.45295V11.6894H10.877V9.20541H12.149V11.6894H14.573V12.8414Z" fill="white"/>
</svg>
