<svg width="18" height="16" viewBox="0 0 18 16" fill="none" xmlns="http://www.w3.org/2000/svg">
<g clip-path="url(#clip0_4009_5726)">
<path d="M13.8351 3.18908C13.8351 3.63673 13.8337 4.05755 13.8351 4.4776C13.8359 4.68686 13.8082 4.87542 13.559 4.86622C13.3331 4.85779 13.3076 4.68149 13.309 4.4868C13.3112 4.00159 13.319 3.51562 13.3062 3.03041C13.2984 2.733 13.4315 2.62799 13.6829 2.5935C14.6218 2.46242 15.5197 3.34085 15.5813 4.46073C15.6471 5.6657 14.7663 6.72886 13.6241 6.84767C12.7079 6.94272 11.9665 6.59702 11.3165 5.75232C11.3165 6.40156 11.3172 6.94272 11.3165 7.48465C11.3165 7.62492 11.3427 7.78129 11.2946 7.90087C11.2528 8.00435 11.1218 8.13236 11.0333 8.13006C10.9455 8.12776 10.8329 7.99132 10.784 7.88477C10.7416 7.79202 10.7727 7.65942 10.7727 7.54444C10.7727 6.39466 10.811 5.24258 10.7635 4.09511C10.6672 1.75799 12.6937 0.322301 14.466 0.51853C16.2185 0.712459 17.6757 2.24396 17.9122 4.17329C17.9958 4.85243 17.9838 5.54689 17.9908 6.23522C18.0022 7.34668 17.9682 8.45889 17.9993 9.56958C18.0815 12.503 16.164 14.1756 14.4158 14.7206C13.9024 14.8808 13.3522 14.9651 12.8176 14.9689C9.57111 14.9912 6.32458 14.9797 3.07805 14.9797C2.93786 14.9797 2.79766 14.9797 2.63126 14.9797C2.66808 15.4319 2.43583 15.5101 2.10233 15.5001C1.5479 15.4833 0.992771 15.4879 0.437639 15.4986C0.120421 15.5047 -0.000659961 15.3637 0.000756191 15.0165C0.00996118 13.1768 0.0106693 11.3364 0.000756191 9.49676C-0.00136804 9.14033 0.138831 9.01769 0.44472 9.02229C1.01118 9.02995 1.57835 9.03072 2.14481 9.02229C2.45282 9.01769 2.66171 9.10737 2.62418 9.53662C2.75376 9.53662 2.86917 9.53662 2.98388 9.53662C6.31325 9.53662 9.64192 9.56115 12.9713 9.52589C14.5935 9.50903 15.9183 8.75094 16.8282 7.28306C18.0114 5.37442 17.4315 2.60806 15.662 1.51807C14.1056 0.559155 12.0267 1.29961 11.4553 3.01508C11.0248 4.30743 11.6387 5.80061 12.761 6.19153C13.6836 6.51347 14.7025 5.99071 14.9794 5.05249C15.2421 4.16256 14.694 3.23277 13.8359 3.19061L13.8351 3.18908ZM2.6348 14.3649C2.74951 14.3734 2.83094 14.3848 2.91166 14.3848C6.22758 14.3856 9.5435 14.3887 12.8587 14.381C13.1986 14.3802 13.5434 14.3412 13.8762 14.2699C15.7087 13.8751 17.1291 12.3957 17.3876 10.5093C17.4973 9.70832 17.4265 8.87895 17.4371 8.06184C17.4393 7.86868 17.4371 7.67475 17.4371 7.39573C16.1881 9.40555 14.3336 10.1721 12.4572 10.1445C9.31904 10.0985 6.18014 10.1322 3.04123 10.1322H2.63409V14.3665L2.6348 14.3649ZM0.583503 9.63397V14.8731H2.04426V9.63397H0.583503Z" fill="#2D2D2C"/>
<path d="M6.30602 12.3718C6.30602 12.6002 6.33434 12.8356 6.29398 13.0556C6.27274 13.1713 6.13325 13.3407 6.04545 13.3422C5.95057 13.3438 5.77638 13.1828 5.77001 13.0832C5.74168 12.6025 5.74168 12.1173 5.77213 11.6375C5.7778 11.5417 5.9619 11.3845 6.05607 11.3907C6.14529 11.3968 6.27487 11.57 6.29611 11.6889C6.33505 11.9096 6.30744 12.1442 6.30673 12.3726L6.30602 12.3718Z" fill="#2D2D2C"/>
<path d="M9.99515 12.3971C9.99515 12.6125 10.0277 12.8371 9.98311 13.041C9.9562 13.1644 9.80892 13.2564 9.71546 13.3622C9.63049 13.2602 9.47896 13.1629 9.47258 13.0555C9.44639 12.588 9.44709 12.1166 9.47613 11.6498C9.4825 11.5501 9.64677 11.4612 9.73811 11.3677C9.82379 11.4696 9.96399 11.5608 9.98311 11.6758C10.0221 11.9096 9.99444 12.1557 9.99515 12.3963V12.3971Z" fill="#2D2D2C"/>
<path d="M13.6792 12.3703C13.6792 12.5872 13.7104 12.8118 13.6686 13.0188C13.6424 13.1468 13.5071 13.2495 13.4201 13.3629C13.3294 13.2648 13.1659 13.1721 13.1595 13.0678C13.1312 12.5972 13.1319 12.1227 13.1609 11.6528C13.1673 11.5516 13.3351 11.462 13.4285 11.3677C13.5121 11.4719 13.6473 11.5654 13.6679 11.6827C13.7061 11.905 13.6792 12.1403 13.6792 12.3703Z" fill="#2D2D2C"/>
<path d="M4.46076 12.6746C4.46076 12.7896 4.49334 12.9199 4.45297 13.0149C4.39775 13.1452 4.28729 13.248 4.2009 13.3629C4.1046 13.2564 3.9467 13.1629 3.92475 13.0418C3.88085 12.7957 3.88156 12.529 3.92475 12.2829C3.94599 12.161 4.10106 12.0668 4.19594 11.9602C4.28445 12.0714 4.40129 12.1687 4.45227 12.2975C4.49475 12.4048 4.46076 12.5481 4.46076 12.6754V12.6746Z" fill="#2D2D2C"/>
<path d="M8.15344 12.667C8.15344 12.7942 8.18602 12.936 8.14424 13.0449C8.09751 13.1667 7.98421 13.2587 7.89925 13.363C7.80365 13.2718 7.6408 13.192 7.62522 13.0863C7.58486 12.8134 7.58344 12.5252 7.62026 12.2515C7.63513 12.1427 7.7902 12.0561 7.88154 11.9595C7.97218 12.0676 8.09184 12.1618 8.14424 12.2891C8.18814 12.3949 8.15344 12.539 8.15274 12.667H8.15344Z" fill="#2D2D2C"/>
<path d="M11.832 12.6669C11.832 12.7942 11.8638 12.9344 11.8242 13.0441C11.7803 13.1652 11.6698 13.2579 11.5884 13.3629C11.4942 13.2709 11.3321 13.1889 11.3186 13.0847C11.2818 12.7988 11.286 12.5006 11.32 12.2139C11.3314 12.1189 11.4985 11.9633 11.5671 11.9786C11.6677 12.0008 11.7803 12.1373 11.8221 12.2522C11.866 12.3733 11.832 12.5274 11.832 12.6669Z" fill="#2D2D2C"/>
</g>
<defs>
<clipPath id="clip0_4009_5726">
<rect width="18" height="15" fill="white" transform="translate(0 0.5)"/>
</clipPath>
</defs>
</svg>
