<svg width="50" height="46" viewBox="0 0 50 46" fill="none" xmlns="http://www.w3.org/2000/svg">
<g clip-path="url(#clip0_541_16254)">
<g clip-path="url(#clip1_541_16254)">
<path d="M21.6058 9.26078C21.5131 9.03652 21.6147 8.77778 21.8325 8.68232C22.0485 8.58723 22.3021 8.69103 22.3941 8.91567C22.9483 10.2571 23.2563 11.8395 23.2854 13.4919C23.3148 15.1716 23.0219 16.6774 22.3893 18.0954C22.3168 18.2575 22.1615 18.3526 21.9992 18.3526C21.9392 18.3526 21.8785 18.3397 21.8211 18.3125C21.6058 18.2109 21.5113 17.9488 21.6103 17.7275C22.1884 16.4323 22.4556 15.0519 22.4283 13.5078C22.4011 11.9675 22.1166 10.4988 21.6055 9.26078H21.6058ZM28.0002 18.3526C28.0602 18.3526 28.1209 18.3397 28.1783 18.3125C28.3936 18.2109 28.4882 17.9488 28.3892 17.7275C27.8111 16.4323 27.5439 15.0519 27.5711 13.5078C27.5984 11.9675 27.8828 10.4988 28.394 9.26078C28.4867 9.03652 28.3851 8.77778 28.1673 8.68232C27.9513 8.58723 27.6977 8.69103 27.6057 8.91567C27.0515 10.2571 26.7435 11.8395 26.7144 13.4919C26.685 15.1716 26.9779 16.6774 27.6105 18.0954C27.683 18.2575 27.8383 18.3526 28.0006 18.3526H28.0002ZM32.1619 20.2467C32.3294 20.4191 32.3294 20.6983 32.1619 20.8707C32.1318 20.9017 32.0953 20.9207 32.0596 20.9408C32.0467 20.9479 32.0372 20.9597 32.0236 20.9654C31.9709 20.9877 31.915 20.9998 31.8591 20.9998H31.8583C31.8583 20.9998 31.858 20.9998 31.8576 20.9998H18.143C18.087 20.9998 18.0315 20.9881 17.9792 20.9658C17.8743 20.9211 17.7908 20.8351 17.7474 20.7271C17.7039 20.6191 17.7039 20.4979 17.7474 20.3899C17.7691 20.3358 17.8003 20.2869 17.8401 20.2464C19.4648 18.5738 20.3329 16.1808 20.2858 13.5078C20.2398 10.8867 19.2797 8.2353 17.8401 6.75333C17.8003 6.7128 17.7691 6.66393 17.7474 6.60976C17.7039 6.50179 17.7039 6.38057 17.7474 6.2726C17.7908 6.16464 17.8743 6.07864 17.9792 6.03394C18.0315 6.01159 18.087 5.99985 18.143 5.99985H31.8572C31.8572 5.99985 31.8576 5.99985 31.858 5.99985C31.9143 5.99985 31.9706 6.01159 32.0232 6.03432C32.0368 6.04 32.0464 6.05175 32.0593 6.05894C32.095 6.07864 32.1314 6.09796 32.1616 6.12903C32.329 6.30139 32.329 6.58059 32.1616 6.75295C30.5372 8.42509 29.6687 10.8181 29.7158 13.4919C29.7622 16.1137 30.7223 18.7652 32.1616 20.2467H32.1619ZM21.1429 13.4919C21.1878 16.0304 20.4661 18.3443 19.0964 20.1176H30.9269C29.6945 18.4314 28.9026 15.9516 28.8591 13.5078C28.8146 10.9693 29.5362 8.65504 30.9056 6.88213H19.0751C20.3079 8.56867 21.0998 11.0485 21.1429 13.4919ZM18.0175 15.1352C18.1849 14.9629 18.1849 14.6837 18.0175 14.5113L17.4633 13.9408H19C19.237 13.9408 19.4288 13.7434 19.4288 13.4995C19.4288 13.2555 19.237 13.0581 19 13.0581H17.4633L18.0175 12.4876C18.1849 12.3153 18.1849 12.0361 18.0175 11.8637C17.85 11.6913 17.5788 11.6913 17.4114 11.8637L16.1256 13.1881C15.9581 13.3604 15.9581 13.6396 16.1256 13.812L17.4114 15.1356C17.4949 15.2216 17.6046 15.2648 17.7142 15.2648C17.8239 15.2648 17.9336 15.2216 18.0171 15.1356L18.0175 15.1352ZM33.8742 13.1881L32.5884 11.8645C32.421 11.6921 32.1498 11.6921 31.9823 11.8645C31.8149 12.0368 31.8149 12.316 31.9823 12.4884L32.5366 13.0589H30.9998C30.7628 13.0589 30.5711 13.2563 30.5711 13.5002C30.5711 13.7442 30.7628 13.9416 30.9998 13.9416H32.5366L31.9823 14.5121C31.8149 14.6844 31.8149 14.9636 31.9823 15.136C32.0659 15.222 32.1755 15.2652 32.2852 15.2652C32.3949 15.2652 32.5045 15.222 32.5881 15.136L33.8739 13.8124C34.0413 13.64 34.0413 13.3608 33.8739 13.1885L33.8742 13.1881ZM24.9999 18.3526C25.2369 18.3526 25.4286 18.1552 25.4286 17.9113V9.08804C25.4286 8.84445 25.2369 8.64671 24.9999 8.64671C24.7629 8.64671 24.5712 8.84407 24.5712 9.08804V17.9117C24.5712 18.1552 24.7629 18.353 24.9999 18.353V18.3526Z" fill="#2D2D2C"/>
</g>
</g>
<path d="M11.2805 31.2618V32.6598H12.8045V33.1098H11.2805V34.5498H12.9845V34.9998H10.7345V30.8118H12.9845V31.2618H11.2805ZM14.3566 34.5558H15.8206V34.9998H13.8106V30.8178H14.3566V34.5558ZM18.8725 34.0698H17.0485L16.7125 34.9998H16.1365L17.6485 30.8418H18.2785L19.7845 34.9998H19.2085L18.8725 34.0698ZM18.7165 33.6258L17.9605 31.5138L17.2045 33.6258H18.7165ZM21.7694 35.0418C21.4934 35.0418 21.2454 34.9938 21.0254 34.8978C20.8094 34.7978 20.6394 34.6618 20.5154 34.4898C20.3914 34.3138 20.3274 34.1118 20.3234 33.8838H20.9054C20.9254 34.0798 21.0054 34.2458 21.1454 34.3818C21.2894 34.5138 21.4974 34.5798 21.7694 34.5798C22.0294 34.5798 22.2334 34.5158 22.3814 34.3878C22.5334 34.2558 22.6094 34.0878 22.6094 33.8838C22.6094 33.7238 22.5654 33.5938 22.4774 33.4938C22.3894 33.3938 22.2794 33.3178 22.1474 33.2658C22.0154 33.2138 21.8374 33.1578 21.6134 33.0978C21.3374 33.0258 21.1154 32.9538 20.9474 32.8818C20.7834 32.8098 20.6414 32.6978 20.5214 32.5458C20.4054 32.3898 20.3474 32.1818 20.3474 31.9218C20.3474 31.6938 20.4054 31.4918 20.5214 31.3158C20.6374 31.1398 20.7994 31.0038 21.0074 30.9078C21.2194 30.8118 21.4614 30.7638 21.7334 30.7638C22.1254 30.7638 22.4454 30.8618 22.6934 31.0578C22.9454 31.2538 23.0874 31.5138 23.1194 31.8378H22.5194C22.4994 31.6778 22.4154 31.5378 22.2674 31.4178C22.1194 31.2938 21.9234 31.2318 21.6794 31.2318C21.4514 31.2318 21.2654 31.2918 21.1214 31.4118C20.9774 31.5278 20.9054 31.6918 20.9054 31.9038C20.9054 32.0558 20.9474 32.1798 21.0314 32.2758C21.1194 32.3718 21.2254 32.4458 21.3494 32.4978C21.4774 32.5458 21.6554 32.6018 21.8834 32.6658C22.1594 32.7418 22.3814 32.8178 22.5494 32.8938C22.7174 32.9658 22.8614 33.0798 22.9814 33.2358C23.1014 33.3878 23.1614 33.5958 23.1614 33.8598C23.1614 34.0638 23.1074 34.2558 22.9994 34.4358C22.8914 34.6158 22.7314 34.7618 22.5194 34.8738C22.3074 34.9858 22.0574 35.0418 21.7694 35.0418ZM26.5389 30.8178V31.2618H25.3989V34.9998H24.8529V31.2618H23.7069V30.8178H26.5389ZM29.683 34.0698H27.859L27.523 34.9998H26.947L28.459 30.8418H29.089L30.595 34.9998H30.019L29.683 34.0698ZM29.527 33.6258L28.771 31.5138L28.015 33.6258H29.527ZM34.542 34.9998H33.996L31.8 31.6698V34.9998H31.254V30.8118H31.8L33.996 34.1358V30.8118H34.542V34.9998ZM37.3687 35.0418C36.9807 35.0418 36.6267 34.9518 36.3067 34.7718C35.9867 34.5878 35.7327 34.3338 35.5447 34.0098C35.3607 33.6818 35.2687 33.3138 35.2687 32.9058C35.2687 32.4978 35.3607 32.1318 35.5447 31.8078C35.7327 31.4798 35.9867 31.2258 36.3067 31.0458C36.6267 30.8618 36.9807 30.7698 37.3687 30.7698C37.7607 30.7698 38.1167 30.8618 38.4367 31.0458C38.7567 31.2258 39.0087 31.4778 39.1927 31.8018C39.3767 32.1258 39.4687 32.4938 39.4687 32.9058C39.4687 33.3178 39.3767 33.6858 39.1927 34.0098C39.0087 34.3338 38.7567 34.5878 38.4367 34.7718C38.1167 34.9518 37.7607 35.0418 37.3687 35.0418ZM37.3687 34.5678C37.6607 34.5678 37.9227 34.4998 38.1547 34.3638C38.3907 34.2278 38.5747 34.0338 38.7067 33.7818C38.8427 33.5298 38.9107 33.2378 38.9107 32.9058C38.9107 32.5698 38.8427 32.2778 38.7067 32.0298C38.5747 31.7778 38.3927 31.5838 38.1607 31.4478C37.9287 31.3118 37.6647 31.2438 37.3687 31.2438C37.0727 31.2438 36.8087 31.3118 36.5767 31.4478C36.3447 31.5838 36.1607 31.7778 36.0247 32.0298C35.8927 32.2778 35.8267 32.5698 35.8267 32.9058C35.8267 33.2378 35.8927 33.5298 36.0247 33.7818C36.1607 34.0338 36.3447 34.2278 36.5767 34.3638C36.8127 34.4998 37.0767 34.5678 37.3687 34.5678Z" fill="#2D2D2C"/>
<defs>
<clipPath id="clip0_541_16254">
<rect width="18" height="15" fill="white" transform="translate(16 5.99985)"/>
</clipPath>
<clipPath id="clip1_541_16254">
<rect width="18" height="15" fill="white" transform="translate(16 5.99985)"/>
</clipPath>
</defs>
</svg>
