<svg width="50" height="46" viewBox="0 0 50 46" fill="none" xmlns="http://www.w3.org/2000/svg">
<g clip-path="url(#clip0_541_16278)">
<g clip-path="url(#clip1_541_16278)">
<path d="M23.8751 10.1247C23.8751 10.3318 23.7073 10.4999 23.4999 10.4999C22.5887 10.4999 22 11.0888 22 11.9998C22 12.2068 21.8323 12.3749 21.6249 12.3749C21.4175 12.3749 21.2498 12.2072 21.2498 11.9998C21.2498 10.6751 22.1752 9.74961 23.4999 9.74961C23.7073 9.74961 23.8751 9.91737 23.8751 10.1247ZM28.3751 14.6248C28.1677 14.6248 28 14.7925 28 14.9999C28 15.9112 27.411 16.4998 26.5001 16.4998C26.2927 16.4998 26.1249 16.6676 26.1249 16.875C26.1249 17.0823 26.2927 17.2501 26.5001 17.2501C27.8248 17.2501 28.7502 16.325 28.7502 14.9999C28.7502 14.7929 28.5825 14.6248 28.3751 14.6248ZM23.4999 16.4998C22.5887 16.4998 22 15.9109 22 14.9999C22 14.7929 21.8323 14.6248 21.6249 14.6248C21.4175 14.6248 21.2498 14.7925 21.2498 14.9999C21.2498 16.3246 22.1752 17.2501 23.4999 17.2501C23.7073 17.2501 23.8751 17.0823 23.8751 16.875C23.8751 16.6676 23.7073 16.4998 23.4999 16.4998ZM26.5001 9.74993C26.2927 9.74993 26.1249 9.91769 26.1249 10.1251C26.1249 10.3324 26.2927 10.5002 26.5001 10.5002C27.4113 10.5002 28 11.0892 28 12.0001C28 12.2072 28.1677 12.3752 28.3751 12.3752C28.5825 12.3752 28.7502 12.2075 28.7502 12.0001C28.7502 10.6754 27.8248 9.74993 26.5001 9.74993ZM30.7229 15.699C30.9038 16.059 31.0001 16.4605 31.0001 16.875C31.0001 18.3224 29.8222 19.4999 28.3751 19.4999C27.9607 19.4999 27.5591 19.4037 27.1991 19.2227C26.9811 20.237 26.0786 20.9998 25.0002 20.9998C23.9218 20.9998 23.0189 20.237 22.8012 19.2227C22.4412 19.4037 22.0396 19.4999 21.6252 19.4999C20.1778 19.4999 19.0002 18.322 19.0002 16.875C19.0002 16.4605 19.0965 16.059 19.2775 15.699C18.2628 15.481 17.5 14.5784 17.5 13.5C17.5 12.4216 18.2628 11.5187 19.2772 11.301C19.0962 10.9407 18.9999 10.5395 18.9999 10.1251C18.9999 8.67765 20.1778 7.50007 21.6249 7.50007C22.0393 7.50007 22.4409 7.59635 22.8009 7.777C23.0189 6.76268 23.9218 5.99985 25.0002 5.99985C26.0786 5.99985 26.9811 6.76268 27.1991 7.777C27.5591 7.59603 27.9607 7.50007 28.3751 7.50007C29.8225 7.50007 31.0001 8.67765 31.0001 10.1251C31.0001 10.5392 30.9038 10.9407 30.7229 11.301C31.7372 11.519 32.5 12.4216 32.5 13.5C32.5 14.5784 31.7372 15.4813 30.7229 15.699ZM31.75 13.5C31.75 12.6728 31.0774 12.0001 30.2501 12.0001C30.1986 12.0001 30.1468 12.0024 30.0953 12.0104C30.085 12.012 30.0753 12.0085 30.065 12.0091C30.0553 12.0098 30.046 12.0149 30.0363 12.0149C30.0193 12.0149 30.0028 12.0078 29.9861 12.0056C29.9648 12.0027 29.9446 12.0004 29.9246 11.9943C29.9024 11.9875 29.8827 11.9763 29.8618 11.965C29.8396 11.9531 29.818 11.9418 29.7987 11.9257C29.7935 11.9212 29.7868 11.9199 29.7819 11.9151C29.771 11.9051 29.7665 11.8916 29.7568 11.8803C29.7388 11.8594 29.7217 11.8385 29.7085 11.8137C29.6966 11.7911 29.6899 11.7679 29.6828 11.7438C29.6783 11.7283 29.6689 11.7155 29.666 11.6987C29.6647 11.6913 29.6676 11.6845 29.667 11.6768C29.6644 11.6504 29.6673 11.625 29.6702 11.5982C29.6728 11.5757 29.6738 11.5535 29.6805 11.5319C29.6873 11.5097 29.6989 11.4897 29.7098 11.4688C29.7217 11.4459 29.733 11.4237 29.7494 11.4038C29.7543 11.398 29.7559 11.3905 29.761 11.3848C30.0766 11.0437 30.2501 10.5962 30.2501 10.1244C30.2501 9.09046 29.4091 8.24938 28.3751 8.24938C27.9034 8.24938 27.4555 8.42294 27.1145 8.73851C27.1125 8.74044 27.1099 8.74076 27.108 8.74237C27.0729 8.77361 27.033 8.79872 26.9882 8.81482C26.9828 8.81676 26.9766 8.81611 26.9708 8.81804C26.9354 8.82931 26.8987 8.83801 26.8601 8.83801C26.8562 8.83801 26.852 8.83704 26.8482 8.83704C26.8456 8.83704 26.8433 8.83672 26.8404 8.8364C26.8272 8.83575 26.814 8.83543 26.8008 8.83318C26.7847 8.8306 26.7722 8.82126 26.7567 8.81676C26.7316 8.80967 26.7078 8.80226 26.6846 8.78971C26.6617 8.77747 26.6427 8.76201 26.6231 8.74559C26.6105 8.73529 26.5957 8.72981 26.5844 8.71758C26.5793 8.71178 26.5777 8.70437 26.5728 8.69858C26.5564 8.67861 26.5451 8.6564 26.5332 8.63353C26.5223 8.6126 26.5107 8.59296 26.5039 8.57074C26.4975 8.54917 26.4962 8.52695 26.4936 8.50409C26.4907 8.47768 26.4878 8.45224 26.4904 8.42584C26.491 8.41843 26.4885 8.41167 26.4894 8.40427C26.4975 8.35274 26.4997 8.3009 26.4997 8.24938C26.4997 7.42215 25.8271 6.74948 24.9998 6.74948C24.1726 6.74948 23.4999 7.42247 23.4999 8.24938C23.4999 8.3009 23.5022 8.35242 23.5102 8.40427C23.5115 8.41167 23.5086 8.41843 23.5093 8.42584C23.5118 8.45224 23.5093 8.47736 23.5061 8.50377C23.5035 8.52663 23.5022 8.54885 23.4957 8.57074C23.489 8.59296 23.4774 8.6126 23.4664 8.63353C23.4545 8.6564 23.4433 8.67861 23.4268 8.6989C23.422 8.7047 23.4204 8.71243 23.4152 8.7179C23.404 8.73014 23.3892 8.73529 23.3766 8.74559C23.357 8.76234 23.3376 8.77779 23.3145 8.79035C23.2913 8.80259 23.2678 8.80999 23.243 8.81708C23.2275 8.82158 23.2146 8.83092 23.1985 8.8335C23.1908 8.83479 23.1837 8.83189 23.176 8.83253C23.1512 8.83511 23.1274 8.83221 23.1026 8.82964C23.0778 8.82706 23.0533 8.82577 23.0298 8.81837C23.0098 8.81225 22.9921 8.80162 22.9731 8.79196C22.948 8.7794 22.9242 8.76684 22.9026 8.74913C22.8971 8.74463 22.8904 8.74334 22.8849 8.73851C22.5439 8.42294 22.096 8.24938 21.6243 8.24938C20.5903 8.24938 19.7492 9.09046 19.7492 10.1244C19.7492 10.5962 19.9228 11.0437 20.2383 11.3848C20.2435 11.3905 20.2451 11.398 20.2499 11.4038C20.2664 11.4237 20.2773 11.4459 20.2895 11.4688C20.3005 11.4897 20.3124 11.5097 20.3188 11.5319C20.3253 11.5535 20.3266 11.5754 20.3291 11.5982C20.332 11.6246 20.3349 11.6501 20.3324 11.6768C20.3317 11.6842 20.3343 11.691 20.3333 11.6987C20.3308 11.7155 20.3211 11.729 20.3163 11.7448C20.3095 11.7679 20.3031 11.7905 20.2915 11.8124C20.2776 11.8394 20.2593 11.8616 20.2396 11.8842C20.2309 11.8938 20.2271 11.9061 20.2174 11.9151C20.2129 11.9193 20.2074 11.9202 20.2029 11.9241C20.1817 11.9421 20.1582 11.9547 20.1334 11.9676C20.1147 11.9772 20.097 11.9875 20.0773 11.9937C20.0561 12.0004 20.0345 12.003 20.012 12.0059C19.9955 12.0082 19.9798 12.0149 19.963 12.0149C19.9534 12.0149 19.9443 12.0098 19.9344 12.0091C19.9241 12.0085 19.9144 12.012 19.9038 12.0104C19.8523 12.002 19.8004 12.0001 19.7489 12.0001C18.9217 12.0001 18.249 12.6731 18.249 13.5C18.249 14.3269 18.9217 14.9999 19.7489 14.9999C19.8004 14.9999 19.8523 14.9977 19.9038 14.9896C19.9109 14.9883 19.9173 14.9912 19.9241 14.9903C19.9508 14.9874 19.9765 14.9903 20.0033 14.9932C20.0274 14.9957 20.0513 14.997 20.0741 15.0041C20.0918 15.0096 20.1076 15.0192 20.1247 15.0276C20.1527 15.0411 20.1794 15.0553 20.2029 15.0753C20.2074 15.0791 20.2129 15.0801 20.2174 15.084C20.2274 15.0933 20.2316 15.1055 20.2403 15.1158C20.2596 15.1377 20.2773 15.1596 20.2911 15.1864C20.3031 15.2089 20.3098 15.2318 20.3166 15.2559C20.3211 15.2714 20.3304 15.2842 20.333 15.3007C20.3343 15.3081 20.3314 15.3145 20.332 15.3219C20.3349 15.349 20.332 15.3747 20.3288 15.4018C20.3262 15.424 20.3253 15.4459 20.3188 15.4668C20.3121 15.489 20.3005 15.509 20.2895 15.5299C20.2776 15.5531 20.266 15.5753 20.2496 15.5953C20.2448 15.6011 20.2435 15.6082 20.2383 15.614C19.9228 15.955 19.7492 16.4026 19.7492 16.8746C19.7492 17.9086 20.5903 18.7497 21.6243 18.7497C22.0892 18.7497 22.531 18.5809 22.8701 18.2741C22.8733 18.2708 22.8781 18.2692 22.8814 18.266C22.9042 18.2438 22.9316 18.2274 22.9596 18.2116C22.9725 18.2042 22.9834 18.1942 22.9973 18.1887C23.0414 18.1704 23.0887 18.1591 23.1393 18.1591C23.3467 18.1591 23.5144 18.3249 23.5144 18.5323V18.5359C23.5144 18.5555 23.5128 18.5755 23.5096 18.5948C23.5015 18.6463 23.4993 18.6982 23.4993 18.7497C23.4993 19.5769 24.172 20.2496 24.9992 20.2496C25.8264 20.2496 26.4991 19.5769 26.4991 18.7497C26.4991 18.6982 26.4968 18.6463 26.4888 18.5948C26.4875 18.5874 26.4904 18.5809 26.4898 18.5735C26.4869 18.5465 26.4898 18.5207 26.493 18.4937C26.4956 18.4715 26.4965 18.4496 26.503 18.4283C26.5097 18.4061 26.5213 18.3861 26.5323 18.3652C26.5442 18.342 26.5558 18.3198 26.5722 18.2998C26.577 18.294 26.5783 18.2869 26.5835 18.2812C26.5947 18.2689 26.6095 18.2638 26.6218 18.2531C26.6414 18.2367 26.6601 18.2209 26.683 18.2087C26.7071 18.1955 26.7322 18.1881 26.7583 18.1807C26.7728 18.1765 26.7847 18.1678 26.7999 18.1652C26.8073 18.1639 26.8137 18.1668 26.8208 18.1659C26.8459 18.1633 26.8704 18.1659 26.8955 18.1685C26.9216 18.171 26.947 18.1726 26.9712 18.1804C26.9876 18.1855 27.0024 18.1945 27.0182 18.2023C27.0472 18.2161 27.0742 18.2306 27.0987 18.2512C27.1032 18.2551 27.109 18.256 27.1132 18.2599C27.4542 18.5755 27.9018 18.749 28.3738 18.749C29.4078 18.749 30.2489 17.9079 30.2489 16.874C30.2489 16.409 30.0801 15.9672 29.7733 15.6281C29.77 15.6249 29.7684 15.6201 29.7652 15.6169C29.743 15.594 29.7266 15.5666 29.7108 15.5386C29.7034 15.5257 29.6934 15.5148 29.6879 15.501C29.6696 15.4568 29.6583 15.4095 29.6583 15.3589C29.6583 15.3026 29.6725 15.2504 29.6944 15.2025C29.6966 15.1976 29.7005 15.1944 29.7027 15.1896C29.7246 15.1471 29.753 15.11 29.7887 15.0788C29.7952 15.073 29.8029 15.0698 29.8096 15.0646C29.8418 15.0402 29.876 15.0202 29.9149 15.0073C29.9336 15.0009 29.9526 14.9993 29.9723 14.9957C29.9922 14.9925 30.0103 14.9838 30.0312 14.9838H30.0347C30.0453 14.9838 30.055 14.9893 30.0653 14.9903C30.075 14.9912 30.084 14.987 30.0937 14.9886C30.1452 14.9967 30.197 14.9989 30.2485 14.9989C31.0758 14.9989 31.7484 14.3263 31.7484 13.499L31.75 13.5Z" fill="#2D2D2C"/>
</g>
</g>
<path d="M12.1066 32.0418C12.1066 32.3898 11.9866 32.6798 11.7466 32.9118C11.5106 33.1398 11.1486 33.2538 10.6606 33.2538H9.85663V34.9998H9.31063V30.8178H10.6606C11.1326 30.8178 11.4906 30.9318 11.7346 31.1598C11.9826 31.3878 12.1066 31.6818 12.1066 32.0418ZM10.6606 32.8038C10.9646 32.8038 11.1886 32.7378 11.3326 32.6058C11.4766 32.4738 11.5486 32.2858 11.5486 32.0418C11.5486 31.5258 11.2526 31.2678 10.6606 31.2678H9.85663V32.8038H10.6606ZM13.3312 31.2618V32.6598H14.8552V33.1098H13.3312V34.5498H15.0352V34.9998H12.7852V30.8118H15.0352V31.2618H13.3312ZM16.4074 34.5558H17.8714V34.9998H15.8614V30.8178H16.4074V34.5558ZM18.9853 30.8178V33.4638C18.9853 33.8358 19.0753 34.1118 19.2553 34.2918C19.4393 34.4718 19.6933 34.5618 20.0173 34.5618C20.3373 34.5618 20.5873 34.4718 20.7673 34.2918C20.9513 34.1118 21.0433 33.8358 21.0433 33.4638V30.8178H21.5893V33.4578C21.5893 33.8058 21.5193 34.0998 21.3793 34.3398C21.2393 34.5758 21.0493 34.7518 20.8093 34.8678C20.5733 34.9838 20.3073 35.0418 20.0113 35.0418C19.7153 35.0418 19.4473 34.9838 19.2073 34.8678C18.9713 34.7518 18.7833 34.5758 18.6433 34.3398C18.5073 34.0998 18.4393 33.8058 18.4393 33.4578V30.8178H18.9853ZM22.2961 32.9058C22.2961 32.4978 22.3881 32.1318 22.5721 31.8078C22.7561 31.4798 23.0061 31.2238 23.3221 31.0398C23.6421 30.8558 23.9961 30.7638 24.3841 30.7638C24.8401 30.7638 25.2381 30.8738 25.5781 31.0938C25.9181 31.3138 26.1661 31.6258 26.3221 32.0298H25.6681C25.5521 31.7778 25.3841 31.5838 25.1641 31.4478C24.9481 31.3118 24.6881 31.2438 24.3841 31.2438C24.0921 31.2438 23.8301 31.3118 23.5981 31.4478C23.3661 31.5838 23.1841 31.7778 23.0521 32.0298C22.9201 32.2778 22.8541 32.5698 22.8541 32.9058C22.8541 33.2378 22.9201 33.5298 23.0521 33.7818C23.1841 34.0298 23.3661 34.2218 23.5981 34.3578C23.8301 34.4938 24.0921 34.5618 24.3841 34.5618C24.6881 34.5618 24.9481 34.4958 25.1641 34.3638C25.3841 34.2278 25.5521 34.0338 25.6681 33.7818H26.3221C26.1661 34.1818 25.9181 34.4918 25.5781 34.7118C25.2381 34.9278 24.8401 35.0358 24.3841 35.0358C23.9961 35.0358 23.6421 34.9458 23.3221 34.7658C23.0061 34.5818 22.7561 34.3278 22.5721 34.0038C22.3881 33.6798 22.2961 33.3138 22.2961 32.9058ZM27.6809 30.8178V34.9998H27.1349V30.8178H27.6809ZM31.0834 34.0698H29.2594L28.9234 34.9998H28.3474L29.8594 30.8418H30.4894L31.9954 34.9998H31.4194L31.0834 34.0698ZM30.9274 33.6258L30.1714 31.5138L29.4154 33.6258H30.9274ZM33.9564 30.8178C34.4124 30.8178 34.8064 30.9038 35.1384 31.0758C35.4744 31.2438 35.7304 31.4858 35.9064 31.8018C36.0864 32.1178 36.1764 32.4898 36.1764 32.9178C36.1764 33.3458 36.0864 33.7178 35.9064 34.0338C35.7304 34.3458 35.4744 34.5858 35.1384 34.7538C34.8064 34.9178 34.4124 34.9998 33.9564 34.9998H32.6544V30.8178H33.9564ZM33.9564 34.5498C34.4964 34.5498 34.9084 34.4078 35.1924 34.1238C35.4764 33.8358 35.6184 33.4338 35.6184 32.9178C35.6184 32.3978 35.4744 31.9918 35.1864 31.6998C34.9024 31.4078 34.4924 31.2618 33.9564 31.2618H33.2004V34.5498H33.9564ZM38.7926 35.0418C38.4046 35.0418 38.0506 34.9518 37.7306 34.7718C37.4106 34.5878 37.1566 34.3338 36.9686 34.0098C36.7846 33.6818 36.6926 33.3138 36.6926 32.9058C36.6926 32.4978 36.7846 32.1318 36.9686 31.8078C37.1566 31.4798 37.4106 31.2258 37.7306 31.0458C38.0506 30.8618 38.4046 30.7698 38.7926 30.7698C39.1846 30.7698 39.5406 30.8618 39.8606 31.0458C40.1806 31.2258 40.4326 31.4778 40.6166 31.8018C40.8006 32.1258 40.8926 32.4938 40.8926 32.9058C40.8926 33.3178 40.8006 33.6858 40.6166 34.0098C40.4326 34.3338 40.1806 34.5878 39.8606 34.7718C39.5406 34.9518 39.1846 35.0418 38.7926 35.0418ZM38.7926 34.5678C39.0846 34.5678 39.3466 34.4998 39.5786 34.3638C39.8146 34.2278 39.9986 34.0338 40.1306 33.7818C40.2666 33.5298 40.3346 33.2378 40.3346 32.9058C40.3346 32.5698 40.2666 32.2778 40.1306 32.0298C39.9986 31.7778 39.8166 31.5838 39.5846 31.4478C39.3526 31.3118 39.0886 31.2438 38.7926 31.2438C38.4966 31.2438 38.2326 31.3118 38.0006 31.4478C37.7686 31.5838 37.5846 31.7778 37.4486 32.0298C37.3166 32.2778 37.2506 32.5698 37.2506 32.9058C37.2506 33.2378 37.3166 33.5298 37.4486 33.7818C37.5846 34.0338 37.7686 34.2278 38.0006 34.3638C38.2366 34.4998 38.5006 34.5678 38.7926 34.5678Z" fill="#2D2D2C"/>
<defs>
<clipPath id="clip0_541_16278">
<rect width="15" height="15" fill="white" transform="translate(17.5 5.99985)"/>
</clipPath>
<clipPath id="clip1_541_16278">
<rect width="15" height="15" fill="white" transform="translate(17.5 5.99985)"/>
</clipPath>
</defs>
</svg>
